<svg xmlns="http://www.w3.org/2000/svg" width="2207" height="474" fill="none"><path fill="#fff" d="M474.633 183.309a725.308 725.308 0 0 1 46.317-48.085c16.164-15.304 32.328-29.471 48.493-42.5 16.371-13.03 32.329-24.715 47.871-35.055 15.543-10.548 30.05-19.441 43.52-26.68 13.678-7.445 25.904-13.132 36.681-17.062 10.776-4.136 19.584-6.204 26.422-6.204 2.902 0 5.699.517 8.393 1.55 2.694 1.035 5.078 2.793 7.15 5.275 2.072 2.481 3.73 5.79 4.974 9.927 1.243 3.93 1.865 8.893 1.865 14.89 0 14.684-3.938 28.851-11.813 42.501-7.875 13.65-18.547 26.783-32.018 39.398-13.263 12.616-28.806 24.715-46.628 36.297-17.615 11.374-36.37 22.336-56.264 32.883a1637.962 1637.962 0 0 1-60.306 30.092 25618.207 25618.207 0 0 1-59.062 27.299 152.251 152.251 0 0 0-8.082 3.723l-7.461 3.102a1542.997 1542.997 0 0 1-32.018 35.366 29171.237 29171.237 0 0 0-32.329 35.365 1918.338 1918.338 0 0 0-30.152 33.194c-9.326 10.755-17.615 20.785-24.868 30.092-7.047 9.307-12.642 17.786-16.787 25.438-4.145 7.445-6.217 13.65-6.217 18.614 0 8.479 1.451 14.063 4.352 16.752 2.901 2.481 8.29 3.722 16.165 3.722 8.703 0 18.651-1.344 29.842-4.033 11.19-2.895 22.588-6.411 34.193-10.547a460.148 460.148 0 0 0 34.505-13.65c11.398-4.964 21.656-9.617 30.775-13.96l3.108 7.445c-31.5 15.305-59.995 27.403-85.485 36.296-25.49 8.893-47.146 13.34-64.968 13.34-4.974 0-10.154-.414-15.543-1.241-5.388-.827-10.361-2.585-14.921-5.274-4.559-2.688-8.289-6.514-11.19-11.478-2.902-4.964-4.352-11.582-4.352-19.854 0-6.205 2.694-14.064 8.082-23.577 5.388-9.514 12.849-20.475 22.381-32.884 9.533-12.409 20.724-26.059 33.573-40.949a6573.623 6573.623 0 0 1 41.654-47.775 2295.511 2295.511 0 0 1-39.789 13.65c-13.056 4.343-25.49 8.686-37.303 13.029a665.784 665.784 0 0 1-18.651 6.515 2182.333 2182.333 0 0 0-19.273 6.515 10049.94 10049.94 0 0 0-19.273 21.095c-6.01 6.825-12.02 13.236-18.029 19.234a603.039 603.039 0 0 1-40.722 38.778c-14.299 12.409-29.221 23.37-44.763 32.883-15.543 9.307-31.604 16.753-48.182 22.337-16.372 5.584-33.158 8.376-50.359 8.376a85.51 85.51 0 0 1-16.164-1.552c-5.181-1.24-9.844-3.102-13.989-5.584A34.542 34.542 0 0 1 7.73 450.101C5.243 445.758 4 440.381 4 433.969c0-8.479 3.42-16.441 10.258-23.887 7.046-7.445 16.165-14.373 27.355-20.785 11.398-6.618 24.35-12.719 38.857-18.303a627.262 627.262 0 0 1 44.452-15.821c15.336-4.964 30.36-9.41 45.074-13.34 14.714-4.136 27.977-7.962 39.789-11.478l115.638-130.294c18.444-20.888 37.613-41.88 57.508-62.975 19.894-21.095 42.172-41.053 66.833-59.873-2.487 1.654-5.802 3.516-9.947 5.584-3.937 2.068-8.29 4.033-13.056 5.894a156.926 156.926 0 0 1-14.921 4.343c-4.974 1.034-9.74 1.551-14.299 1.551-6.632 0-12.123-1.55-16.475-4.653-4.352-3.102-6.528-8.583-6.528-16.442V46.81c0-1.86-.518-3.205-1.555-4.032-1.036-1.034-2.383-1.551-4.041-1.551-2.279 0-5.077.93-8.393 2.792-3.108 1.861-7.357 5.48-12.745 10.858l-6.217-5.584c7.046-8.066 13.678-13.547 19.895-16.442 6.217-3.102 13.677-4.654 22.381-4.654 9.74 0 16.683 1.655 20.827 4.964 4.352 3.102 6.528 7.652 6.528 13.65 0 3.93.415 7.135 1.244 9.617.829 2.275 1.865 4.033 3.108 5.274 1.451 1.24 2.902 2.068 4.352 2.481 1.658.414 3.316.62 4.974.62 6.839 0 14.506-1.033 23.003-3.101 8.497-2.069 17.408-4.757 26.734-8.066a457.907 457.907 0 0 0 28.287-11.789 589.08 589.08 0 0 0 27.977-13.34 2460.51 2460.51 0 0 0 25.179-13.029C563.951 11.135 570.79 7.31 576.593 4l6.217 5.584c-17.201 10.961-34.194 23.37-50.98 37.227a951.516 951.516 0 0 0-47.872 42.81c-15.335 14.478-29.738 28.851-43.208 43.122-13.471 14.063-25.387 26.989-35.749 38.778L287.498 304.917a5285.134 5285.134 0 0 0 56.265-17.993c19.895-6.618 38.649-13.03 56.264-19.234a370.48 370.48 0 0 0 12.124-13.34c4.145-4.757 8.393-9.617 12.745-14.58a1700.7 1700.7 0 0 0 13.056-14.891 406.535 406.535 0 0 1 12.434-13.65l24.247-27.92Zm28.598 24.818a1579.073 1579.073 0 0 0-9.947 11.788l-8.704 11.168a16.55 16.55 0 0 0-3.109 4.344c9.533-4.137 20.102-8.894 31.707-14.271a1396.628 1396.628 0 0 0 36.681-17.372 1368.3 1368.3 0 0 0 38.857-19.544c13.056-6.825 25.593-13.857 37.613-21.095 12.02-7.239 23.21-14.581 33.572-22.026 10.362-7.446 19.273-14.891 26.734-22.336 7.875-8.066 14.714-15.512 20.516-22.337 6.01-7.031 10.88-13.753 14.61-20.164 3.938-6.618 6.839-13.236 8.704-19.854 1.865-6.618 2.798-13.547 2.798-20.785 0-4.137-.829-7.549-2.487-10.238-1.658-2.688-3.316-4.033-4.974-4.033-8.703 0-20.205 3.516-34.504 10.548-14.3 6.825-30.982 17.786-50.048 32.884-18.858 14.89-39.893 34.228-63.103 58.012-23.211 23.576-48.183 52.014-74.916 85.311ZM19.543 435.831c0 2.895.725 5.377 2.176 7.445 1.657 2.068 3.73 3.723 6.217 4.964 2.694 1.241 5.595 2.171 8.704 2.792 3.315.62 6.735.93 10.258.93 13.677 0 26.63-2.688 38.856-8.065 12.227-5.584 24.04-12.926 35.438-22.026 11.605-9.1 22.899-19.544 33.883-31.333a1469.4 1469.4 0 0 0 33.572-36.606c.622-1.034 1.244-1.862 1.865-2.482l2.487-2.482a3339.454 3339.454 0 0 1-43.83 13.65c-14.3 4.343-27.873 8.686-40.722 13.029-12.849 4.344-24.765 8.687-35.748 13.03-10.776 4.343-20.102 8.996-27.977 13.96-7.875 4.757-14.092 9.927-18.651 15.511-4.352 5.377-6.528 11.271-6.528 17.683Z"/><path fill="#fff" d="M630.875 468.094H550.66V46.23h77.668v32.402h-42.654v152.481h38.198v31.767h-38.198v173.447h45.201v31.767ZM750.263 468.094h-35.015l-6.366-108.643h-31.195l-5.729 108.643H637.58L665.591 46.23h56.024l28.648 421.864ZM692.33 107.222l-12.733 221.733h27.375l-12.096-221.733h-2.546ZM820.466 468.094h-56.023L736.431 46.23h35.014l20.373 344.353h2.546L814.736 46.23h34.378l-28.648 421.864ZM939.864 468.094h-80.215V46.23h77.668v32.402h-42.654v152.481h38.198v31.767h-38.198v173.447h45.201v31.767ZM1061.16 468.094h-46.47l-33.107-337.999h-2.547c1.273 20.966 1.273 50.191 1.273 154.387v183.612h-28.648V46.23h50.929l28.01 334.823h2.55c-.64-26.049-1.91-62.899-1.91-185.519V46.23h29.92v421.864ZM1158.75 468.094h-82.13V46.23h35.66v389.462h46.47v32.402ZM1212.54 468.094h-35.65V294.012L1137.42 46.23h36.29l19.73 158.834h2.55l18.46-158.834h36.29l-38.2 247.782v174.082ZM1402.09 418.538v-122.62h33.74v120.714c0 36.214-17.19 53.368-49.02 53.368-33.74 0-50.93-19.06-50.93-54.004V99.598c0-35.579 16.55-55.274 51.56-55.274 30.56 0 48.39 15.248 48.39 55.91v97.206h-33.74V97.057c0-12.707-5.1-19.695-15.28-19.695-10.83 0-15.92 6.988-15.92 19.06v321.48c0 13.978 5.09 19.696 15.28 19.696 10.82 0 15.92-6.354 15.92-19.06ZM1551.48 100.234v316.398c0 36.214-17.83 53.368-50.29 53.368-33.75 0-51.57-19.06-51.57-54.004V99.598c0-34.943 18.46-55.274 50.93-55.274s50.93 20.966 50.93 55.91Zm-35.02 318.304V97.057c0-12.707-5.72-19.695-15.91-19.695-10.19 0-15.92 6.988-15.92 19.06v322.116c0 12.706 5.1 19.06 15.92 19.06 10.19 0 15.91-6.354 15.91-19.06ZM1632.12 418.538v-122.62h33.74v120.714c0 36.214-17.19 53.368-49.02 53.368-33.74 0-50.93-19.06-50.93-54.004V99.598c0-35.579 16.55-55.274 51.57-55.274 30.55 0 48.38 15.248 48.38 55.91v97.206h-33.74V97.057c0-12.707-5.1-19.695-15.28-19.695-10.82 0-15.92 6.988-15.92 19.06v321.48c0 13.978 5.1 19.696 15.28 19.696 10.82 0 15.92-6.354 15.92-19.06ZM1787.24 468.094h-35.65l-22.92-181.071h-1.27l-10.82 48.286v132.785h-35.66V46.23h35.66v164.552h2.54l33.11-164.552h35.65l-33.74 163.282 33.1 258.582ZM1863.38 468.094h-35.65V78.632h-32.47V46.23h101.22v32.402h-33.1v389.462ZM1997.41 468.094h-35.02l-6.36-108.643h-31.2l-5.73 108.643h-34.38l28.02-421.864h56.02l28.65 421.864Zm-57.94-360.872-12.73 221.733h27.38l-12.1-221.733h-2.55ZM2043.59 468.094h-35.65V46.23h35.65v421.864ZM2141.05 468.094h-82.13V46.23h35.65v389.462h46.48v32.402ZM2170.35 55.087v7.338c0 7.72 4.85 11.038 14.42 11.038s13.4-3.318 13.4-11.804v-6.572h-27.82Zm-7.21 9.124V46.474h42.37V62.87c0 11.485-7.85 19.652-20.74 19.652-12.88 0-21.63-7.338-21.63-18.312ZM2163.14 94.098V85.23h42.37v8.868h-42.37ZM2181.01 124.63v-18.631h-17.87v-8.868h42.37v30.179h-7.4v-21.311h-9.64v18.631h-7.46ZM2181.01 156.844v-18.631h-17.87v-8.869h42.37v30.179h-7.4v-21.31h-9.64v18.631h-7.46ZM2177.25 186.633h28.26v9.06h-28.26c-10.28 0-15.57-6.317-15.57-17.419 0-10.272 4.85-16.716 15.05-16.716h28.78v8.996h-27.95c-5.23 0-8.55 2.807-8.55 7.593 0 5.678 2.68 8.486 8.24 8.486ZM2193 231.355v-8.422c4.34-.447 6.45-3.063 6.45-8.422 0-4.977-1.79-7.593-4.98-7.593-2.68 0-4.21 1.851-5.36 6.572-1.15 4.785-2.29 9.443-3.7 12.569-1.66 3.701-4.27 6.636-10.27 6.636-9.32 0-13.46-7.018-13.46-16.908 0-10.464 4.65-17.738 14.16-17.929v8.55c-4.34.127-7.02 3.764-7.02 9.443 0 5.232 2.24 8.231 6 8.231 2.49 0 4.21-1.277 5.36-6.572 1.15-5.232 1.91-8.614 3.25-11.613 2.05-4.53 5.11-7.082 10.47-7.082 7.59 0 13.01 5.168 13.01 15.505 0 10.719-5.8 16.716-13.91 17.035ZM2163.14 267.052v-32.157h42.37v31.136h-7.4v-22.523h-9.06v20.737h-7.47v-20.737h-10.91v23.544h-7.53ZM2198.17 288.887v-11.42h-11.29v11.101c0 4.722 2.36 6.508 5.61 6.508 3.32 0 5.68-1.786 5.68-6.189Zm-35.03 13.335v-8.677h10.91c4.09 0 5.68-1.531 5.68-6.636v-9.442h-16.59v-8.614h42.37v21.502c0 7.848-5.23 13.016-12.25 13.016-4.53 0-8.36-2.233-9.83-6.317-1.21 3.765-3.31 5.168-8.29 5.168h-12ZM2193 353.542v-8.422c4.34-.446 6.45-3.062 6.45-8.422 0-4.977-1.79-7.593-4.98-7.593-2.68 0-4.21 1.851-5.36 6.572-1.15 4.785-2.29 9.443-3.7 12.57-1.66 3.7-4.27 6.635-10.27 6.635-9.32 0-13.46-7.018-13.46-16.908 0-10.464 4.65-17.737 14.16-17.929v8.55c-4.34.128-7.02 3.764-7.02 9.443 0 5.232 2.24 8.231 6 8.231 2.49 0 4.21-1.276 5.36-6.572 1.15-5.232 1.91-8.614 3.25-11.612 2.05-4.531 5.11-7.083 10.47-7.083 7.59 0 13.01 5.168 13.01 15.505 0 10.719-5.8 16.716-13.91 17.035ZM2163.14 391.408v-8.932h19.02v-16.525h-19.02v-8.869h42.37v8.869h-15.95v16.525h15.95v8.932h-42.37ZM2169.27 414.372c0 6.381 4.47 11.485 14.48 11.485 10.02 0 15.32-4.083 15.32-11.485 0-7.465-5.3-11.612-15.32-11.612-10.01 0-14.48 4.275-14.48 11.612Zm-7.59 0c0-13.016 7.97-20.353 22.26-20.353 14.36 0 22.97 7.337 22.97 20.353 0 13.016-8.61 20.226-23.16 20.226-14.54 0-22.07-7.21-22.07-20.226ZM2185.73 446.142v8.422c0 5.104 2.62 7.21 6.32 7.21 3.51 0 6.12-2.106 6.12-7.21v-8.422h-12.44Zm-22.59 0v-8.869h42.37v18.695c0 8.294-6.06 13.59-13.72 13.59-7.72 0-13.27-5.296-13.27-13.59v-9.826h-15.38Z"/><mask id="a" width="751" height="474" x="0" y=".214" fill="#000" maskUnits="userSpaceOnUse"><path fill="#fff" d="M0 .214h751v474H0z"/><path d="M474.633 184.523a725.563 725.563 0 0 1 46.317-48.085c16.164-15.304 32.328-29.471 48.493-42.5 16.371-13.03 32.329-24.715 47.871-35.056 15.543-10.547 30.05-19.44 43.52-26.679 13.678-7.445 25.905-13.133 36.681-17.062 10.776-4.136 19.584-6.204 26.422-6.204 2.902 0 5.699.517 8.393 1.55 2.695 1.035 5.078 2.793 7.15 5.274 2.072 2.482 3.73 5.791 4.974 9.928 1.243 3.93 1.865 8.893 1.865 14.89 0 14.684-3.938 28.851-11.813 42.5-7.875 13.65-18.547 26.784-32.018 39.399-13.263 12.616-28.806 24.715-46.628 36.296-17.615 11.375-36.37 22.336-56.264 32.884a1637.962 1637.962 0 0 1-60.306 30.092 25618.207 25618.207 0 0 1-59.062 27.299 152.251 152.251 0 0 0-8.082 3.723l-7.461 3.102a1545.106 1545.106 0 0 1-32.018 35.366 30015.785 30015.785 0 0 0-32.329 35.365 1918.338 1918.338 0 0 0-30.152 33.194c-9.326 10.754-17.615 20.785-24.868 30.092-7.046 9.306-12.642 17.786-16.787 25.438-4.145 7.445-6.217 13.65-6.217 18.613 0 8.48 1.451 14.064 4.352 16.753 2.901 2.481 8.29 3.722 16.165 3.722 8.704 0 18.651-1.344 29.842-4.033 11.19-2.895 22.588-6.411 34.193-10.547a460.577 460.577 0 0 0 34.505-13.65c11.398-4.964 21.656-9.617 30.775-13.96l3.108 7.445c-31.5 15.305-59.995 27.403-85.485 36.296-25.49 8.893-47.146 13.34-64.968 13.34-4.974 0-10.154-.414-15.543-1.241-5.388-.827-10.361-2.585-14.921-5.274-4.559-2.688-8.289-6.514-11.19-11.478-2.902-4.964-4.352-11.582-4.352-19.854 0-6.205 2.694-14.064 8.082-23.577 5.388-9.514 12.849-20.475 22.381-32.884 9.533-12.409 20.724-26.059 33.573-40.949a6573.623 6573.623 0 0 1 41.654-47.775 2295.511 2295.511 0 0 1-39.789 13.65c-13.056 4.343-25.49 8.686-37.303 13.029a665.784 665.784 0 0 1-18.651 6.515 2182.333 2182.333 0 0 0-19.273 6.515 10049.94 10049.94 0 0 0-19.273 21.095c-6.01 6.825-12.02 13.236-18.029 19.234a603.039 603.039 0 0 1-40.722 38.778c-14.299 12.409-29.221 23.37-44.763 32.883-15.543 9.307-31.604 16.752-48.182 22.336-16.372 5.584-33.158 8.376-50.359 8.376a85.59 85.59 0 0 1-16.164-1.551c-5.181-1.241-9.844-3.102-13.989-5.584A34.542 34.542 0 0 1 7.73 451.315C5.243 446.972 4 441.595 4 435.183c0-8.479 3.42-16.442 10.258-23.887 7.046-7.445 16.165-14.374 27.355-20.785 11.398-6.618 24.35-12.719 38.857-18.303a627.262 627.262 0 0 1 44.452-15.821c15.336-4.964 30.36-9.41 45.074-13.34 14.714-4.136 27.977-7.962 39.789-11.478l115.638-130.294c18.444-20.888 37.613-41.88 57.508-62.975 19.894-21.096 42.172-41.053 66.833-59.873-2.487 1.654-5.802 3.515-9.947 5.584-3.937 2.068-8.29 4.032-13.056 5.894a156.926 156.926 0 0 1-14.921 4.343c-4.974 1.034-9.74 1.551-14.299 1.551-6.632 0-12.123-1.551-16.475-4.653-4.352-3.103-6.528-8.583-6.528-16.442v-26.68c0-1.86-.518-3.205-1.555-4.032-1.036-1.034-2.383-1.551-4.041-1.551-2.279 0-5.077.93-8.393 2.792-3.108 1.861-7.357 5.48-12.745 10.858l-6.217-5.584c7.046-8.066 13.678-13.547 19.895-16.442 6.217-3.103 13.677-4.654 22.381-4.654 9.74 0 16.683 1.655 20.827 4.964 4.352 3.102 6.528 7.652 6.528 13.65 0 3.93.415 7.135 1.244 9.617.829 2.275 1.865 4.032 3.108 5.273 1.451 1.241 2.902 2.069 4.352 2.482 1.658.414 3.316.62 4.974.62 6.839 0 14.506-1.033 23.003-3.102 8.497-2.068 17.408-4.756 26.734-8.065A457.773 457.773 0 0 0 502.92 43.06a589.178 589.178 0 0 0 27.977-13.34 2460.44 2460.44 0 0 0 25.179-13.029 1677.91 1677.91 0 0 0 20.517-11.478l6.217 5.584c-17.201 10.961-34.194 23.37-50.98 37.227a951.516 951.516 0 0 0-47.872 42.81c-15.335 14.478-29.738 28.851-43.208 43.122-13.471 14.063-25.387 26.989-35.749 38.777L287.498 306.13a5284.294 5284.294 0 0 0 56.265-17.992c19.895-6.619 38.65-13.03 56.265-19.234a370.453 370.453 0 0 0 12.123-13.34c4.145-4.757 8.393-9.617 12.745-14.58a1700.7 1700.7 0 0 0 13.056-14.891 406.535 406.535 0 0 1 12.434-13.65l24.247-27.92Zm28.598 24.818a1579.073 1579.073 0 0 0-9.947 11.788l-8.704 11.168a16.562 16.562 0 0 0-3.109 4.343c9.533-4.136 20.102-8.893 31.707-14.27a1396.628 1396.628 0 0 0 36.681-17.372 1368.3 1368.3 0 0 0 38.857-19.544c13.056-6.825 25.593-13.857 37.613-21.096 12.02-7.238 23.21-14.58 33.572-22.025 10.362-7.446 19.273-14.891 26.734-22.337 7.875-8.065 14.714-15.511 20.516-22.336 6.01-7.031 10.88-13.753 14.61-20.164 3.938-6.618 6.839-13.236 8.704-19.854 1.865-6.619 2.798-13.547 2.798-20.785 0-4.137-.829-7.55-2.487-10.238-1.658-2.688-3.316-4.033-4.974-4.033-8.703 0-20.205 3.516-34.504 10.548-14.299 6.825-30.982 17.786-50.048 32.884-18.858 14.89-39.893 34.228-63.103 58.011-23.211 23.577-48.183 52.014-74.916 85.312ZM19.543 437.045c0 2.895.725 5.377 2.176 7.445 1.657 2.068 3.73 3.723 6.217 4.964 2.694 1.24 5.595 2.171 8.704 2.792a55.7 55.7 0 0 0 10.258.93c13.677 0 26.63-2.688 38.856-8.066 12.227-5.584 24.04-12.925 35.438-22.025 11.605-9.1 22.899-19.544 33.883-31.333a1471.176 1471.176 0 0 0 33.572-36.606c.622-1.034 1.244-1.862 1.865-2.482l2.487-2.482a3339.454 3339.454 0 0 1-43.83 13.65c-14.3 4.343-27.873 8.686-40.722 13.029s-24.765 8.687-35.748 13.03c-10.776 4.343-20.102 8.996-27.977 13.96-7.875 4.757-14.092 9.927-18.651 15.511-4.352 5.377-6.528 11.271-6.528 17.683Z"/></mask><path fill="#fff" d="M474.633 184.523a725.563 725.563 0 0 1 46.317-48.085c16.164-15.304 32.328-29.471 48.493-42.5 16.371-13.03 32.329-24.715 47.871-35.056 15.543-10.547 30.05-19.44 43.52-26.679 13.678-7.445 25.905-13.133 36.681-17.062 10.776-4.136 19.584-6.204 26.422-6.204 2.902 0 5.699.517 8.393 1.55 2.695 1.035 5.078 2.793 7.15 5.274 2.072 2.482 3.73 5.791 4.974 9.928 1.243 3.93 1.865 8.893 1.865 14.89 0 14.684-3.938 28.851-11.813 42.5-7.875 13.65-18.547 26.784-32.018 39.399-13.263 12.616-28.806 24.715-46.628 36.296-17.615 11.375-36.37 22.336-56.264 32.884a1637.962 1637.962 0 0 1-60.306 30.092 25618.207 25618.207 0 0 1-59.062 27.299 152.251 152.251 0 0 0-8.082 3.723l-7.461 3.102a1545.106 1545.106 0 0 1-32.018 35.366 30015.785 30015.785 0 0 0-32.329 35.365 1918.338 1918.338 0 0 0-30.152 33.194c-9.326 10.754-17.615 20.785-24.868 30.092-7.046 9.306-12.642 17.786-16.787 25.438-4.145 7.445-6.217 13.65-6.217 18.613 0 8.48 1.451 14.064 4.352 16.753 2.901 2.481 8.29 3.722 16.165 3.722 8.704 0 18.651-1.344 29.842-4.033 11.19-2.895 22.588-6.411 34.193-10.547a460.577 460.577 0 0 0 34.505-13.65c11.398-4.964 21.656-9.617 30.775-13.96l3.108 7.445c-31.5 15.305-59.995 27.403-85.485 36.296-25.49 8.893-47.146 13.34-64.968 13.34-4.974 0-10.154-.414-15.543-1.241-5.388-.827-10.361-2.585-14.921-5.274-4.559-2.688-8.289-6.514-11.19-11.478-2.902-4.964-4.352-11.582-4.352-19.854 0-6.205 2.694-14.064 8.082-23.577 5.388-9.514 12.849-20.475 22.381-32.884 9.533-12.409 20.724-26.059 33.573-40.949a6573.623 6573.623 0 0 1 41.654-47.775 2295.511 2295.511 0 0 1-39.789 13.65c-13.056 4.343-25.49 8.686-37.303 13.029a665.784 665.784 0 0 1-18.651 6.515 2182.333 2182.333 0 0 0-19.273 6.515 10049.94 10049.94 0 0 0-19.273 21.095c-6.01 6.825-12.02 13.236-18.029 19.234a603.039 603.039 0 0 1-40.722 38.778c-14.299 12.409-29.221 23.37-44.763 32.883-15.543 9.307-31.604 16.752-48.182 22.336-16.372 5.584-33.158 8.376-50.359 8.376a85.59 85.59 0 0 1-16.164-1.551c-5.181-1.241-9.844-3.102-13.989-5.584A34.542 34.542 0 0 1 7.73 451.315C5.243 446.972 4 441.595 4 435.183c0-8.479 3.42-16.442 10.258-23.887 7.046-7.445 16.165-14.374 27.355-20.785 11.398-6.618 24.35-12.719 38.857-18.303a627.262 627.262 0 0 1 44.452-15.821c15.336-4.964 30.36-9.41 45.074-13.34 14.714-4.136 27.977-7.962 39.789-11.478l115.638-130.294c18.444-20.888 37.613-41.88 57.508-62.975 19.894-21.096 42.172-41.053 66.833-59.873-2.487 1.654-5.802 3.515-9.947 5.584-3.937 2.068-8.29 4.032-13.056 5.894a156.926 156.926 0 0 1-14.921 4.343c-4.974 1.034-9.74 1.551-14.299 1.551-6.632 0-12.123-1.551-16.475-4.653-4.352-3.103-6.528-8.583-6.528-16.442v-26.68c0-1.86-.518-3.205-1.555-4.032-1.036-1.034-2.383-1.551-4.041-1.551-2.279 0-5.077.93-8.393 2.792-3.108 1.861-7.357 5.48-12.745 10.858l-6.217-5.584c7.046-8.066 13.678-13.547 19.895-16.442 6.217-3.103 13.677-4.654 22.381-4.654 9.74 0 16.683 1.655 20.827 4.964 4.352 3.102 6.528 7.652 6.528 13.65 0 3.93.415 7.135 1.244 9.617.829 2.275 1.865 4.032 3.108 5.273 1.451 1.241 2.902 2.069 4.352 2.482 1.658.414 3.316.62 4.974.62 6.839 0 14.506-1.033 23.003-3.102 8.497-2.068 17.408-4.756 26.734-8.065A457.773 457.773 0 0 0 502.92 43.06a589.178 589.178 0 0 0 27.977-13.34 2460.44 2460.44 0 0 0 25.179-13.029 1677.91 1677.91 0 0 0 20.517-11.478l6.217 5.584c-17.201 10.961-34.194 23.37-50.98 37.227a951.516 951.516 0 0 0-47.872 42.81c-15.335 14.478-29.738 28.851-43.208 43.122-13.471 14.063-25.387 26.989-35.749 38.777L287.498 306.13a5284.294 5284.294 0 0 0 56.265-17.992c19.895-6.619 38.65-13.03 56.265-19.234a370.453 370.453 0 0 0 12.123-13.34c4.145-4.757 8.393-9.617 12.745-14.58a1700.7 1700.7 0 0 0 13.056-14.891 406.535 406.535 0 0 1 12.434-13.65l24.247-27.92Zm28.598 24.818a1579.073 1579.073 0 0 0-9.947 11.788l-8.704 11.168a16.562 16.562 0 0 0-3.109 4.343c9.533-4.136 20.102-8.893 31.707-14.27a1396.628 1396.628 0 0 0 36.681-17.372 1368.3 1368.3 0 0 0 38.857-19.544c13.056-6.825 25.593-13.857 37.613-21.096 12.02-7.238 23.21-14.58 33.572-22.025 10.362-7.446 19.273-14.891 26.734-22.337 7.875-8.065 14.714-15.511 20.516-22.336 6.01-7.031 10.88-13.753 14.61-20.164 3.938-6.618 6.839-13.236 8.704-19.854 1.865-6.619 2.798-13.547 2.798-20.785 0-4.137-.829-7.55-2.487-10.238-1.658-2.688-3.316-4.033-4.974-4.033-8.703 0-20.205 3.516-34.504 10.548-14.299 6.825-30.982 17.786-50.048 32.884-18.858 14.89-39.893 34.228-63.103 58.011-23.211 23.577-48.183 52.014-74.916 85.312ZM19.543 437.045c0 2.895.725 5.377 2.176 7.445 1.657 2.068 3.73 3.723 6.217 4.964 2.694 1.24 5.595 2.171 8.704 2.792a55.7 55.7 0 0 0 10.258.93c13.677 0 26.63-2.688 38.856-8.066 12.227-5.584 24.04-12.925 35.438-22.025 11.605-9.1 22.899-19.544 33.883-31.333a1471.176 1471.176 0 0 0 33.572-36.606c.622-1.034 1.244-1.862 1.865-2.482l2.487-2.482a3339.454 3339.454 0 0 1-43.83 13.65c-14.3 4.343-27.873 8.686-40.722 13.029s-24.765 8.687-35.748 13.03c-10.776 4.343-20.102 8.996-27.977 13.96-7.875 4.757-14.092 9.927-18.651 15.511-4.352 5.377-6.528 11.271-6.528 17.683Z"/><path fill="#000" d="M694.876 106.436h-2.546v4h2.546v-4Zm-220.243 78.087-3.006-2.64-.007.009-.007.008 3.02 2.623Zm94.81-90.585-2.491-3.13-.01.008-.009.007 2.51 3.115Zm47.871-35.056 2.216 3.33.015-.01.016-.01-2.247-3.31Zm43.52-26.679 1.894 3.524.009-.005.01-.005-1.913-3.514Zm36.681-17.062 1.37 3.758.032-.012.031-.012-1.433-3.734Zm46.939 10.548-3.831 1.151.008.028.009.027 3.814-1.206Zm-41.966 96.789-2.734-2.919-.011.01-.011.011 2.756 2.898Zm-46.628 36.296 2.17 3.361.01-.007-2.18-3.354Zm-56.264 32.884 1.86 3.541.007-.003.006-.004-1.873-3.534ZM539.29 221.75l1.683 3.629.015-.007.015-.007-1.713-3.615Zm-59.062 27.299 1.573 3.678.05-.021.05-.023-1.673-3.634Zm-8.082 3.723 1.536 3.693.127-.052.123-.062-1.786-3.579Zm-7.461 3.102-1.536-3.693-.858.357-.613.699 3.007 2.637Zm-32.018 35.366-2.925-2.729-.012.014-.013.013 2.95 2.702Zm-32.329 35.365 2.931 2.723.012-.013.012-.013-2.955-2.697Zm-30.152 33.194-2.994-2.653-.014.016-.014.017 3.022 2.62Zm-24.868 30.092-3.155-2.459-.018.022-.017.022 3.19 2.415Zm-16.787 25.438 3.495 1.946.011-.021.011-.02-3.517-1.905Zm-1.865 35.366-2.719 2.933.059.054.06.052 2.6-3.039Zm46.007-.311.934 3.89.034-.009.034-.008-1.002-3.873Zm34.193-10.547-1.322-3.776-.01.004-.01.004 1.342 3.768Zm34.505-13.65-1.597-3.667-.012.005-.013.005 1.622 3.657Zm30.775-13.96 3.691-1.541-1.619-3.877-3.792 1.807 1.72 3.611Zm3.108 7.445 1.748 3.598 3.4-1.652-1.457-3.487-3.691 1.541Zm-90.769-133.396 3.003 2.642 10.141-11.525-14.476 5.111 1.332 3.772Zm-77.092 26.679 1.375 3.757.006-.002-1.381-3.755Zm-37.924 13.03-1.298-3.784-.963.331-.688.751 2.949 2.702Zm-19.273 21.095-2.957-2.694-.023.025-.022.025 3.002 2.644Zm-18.029 19.234-2.826-2.832-.033.034-.033.034 2.892 2.764Zm-85.485 71.661 2.055 3.432.016-.01.017-.01-2.088-3.412ZM98.5 460.311l-1.277-3.79-.007.002-.008.003 1.291 3.785Zm-66.523 6.825-.932 3.89.088.022.09.017.754-3.929Zm-13.989-5.584-2.176 3.356.06.039.062.037 2.054-3.432ZM7.73 451.315l-3.471 1.988.057.099.062.096 3.352-2.183Zm6.528-40.019-2.905-2.749-.02.021-.02.022 2.945 2.706Zm27.355-20.785 1.989 3.471.01-.006.01-.006-2.009-3.459Zm38.857-18.303 1.437 3.733.023-.009.023-.009-1.483-3.715Zm44.452-15.821 1.2 3.815.016-.005.016-.005-1.232-3.805Zm45.074-13.34 1.032 3.865.025-.007.025-.007-1.082-3.851Zm39.789-11.478 1.141 3.834 1.094-.326.757-.853-2.992-2.655Zm115.638-130.294 2.991 2.655.007-.007-2.998-2.648ZM449.764 78.427l2.427 3.18-4.642-6.51 2.215 3.33Zm-9.947 5.584-1.786-3.58-.037.019-.037.02 1.86 3.54Zm-13.056 5.894 1.312 3.779.072-.025.071-.028-1.455-3.726Zm-14.921 4.343.814 3.916.059-.012.059-.014-.932-3.89Zm-38.857-50.256-2.825 2.831.157.157.173.138 2.495-3.126Zm-12.434 1.24-1.958-3.487-.049.027-.048.029 2.055 3.432ZM347.804 56.09l-2.673 2.976 2.818 2.531 2.681-2.675-2.826-2.831Zm-6.217-5.584-3.012-2.631-2.596 2.971 2.935 2.636 2.673-2.975Zm19.895-16.441 1.689 3.626.048-.023.049-.024-1.786-3.58Zm43.208.31-2.495 3.126.085.068.089.063 2.321-3.257Zm7.772 23.267-3.794 1.267.017.051.019.051 3.758-1.37Zm3.108 5.273-2.825 2.832.109.108.116.1 2.6-3.04Zm4.352 2.482-1.096 3.847.064.018.064.016.968-3.88Zm54.711-10.547 1.337 3.77.037-.014.037-.014-1.411-3.742ZM502.92 43.06l-1.629-3.653-.014.006-.015.007 1.658 3.64Zm53.156-26.369 1.86 3.541.036-.019.036-.02-1.932-3.502Zm20.517-11.478 2.673-2.976-2.148-1.929-2.507 1.43 1.982 3.475Zm6.217 5.584 2.149 3.373 4.442-2.83-3.918-3.519-2.673 2.976Zm-50.98 37.227-2.547-3.085-.009.008-.01.008 2.566 3.069Zm-47.872 42.81 2.746 2.91.01-.01.011-.01-2.767-2.89Zm-43.208 43.122 2.888 2.766.01-.01.01-.011-2.908-2.745Zm-35.749 38.777 3.002 2.644.003-.003-3.005-2.641ZM287.498 306.13l-3.001-2.644-9.461 10.741 13.658-4.28-1.196-3.817Zm56.265-17.992 1.239 3.803.012-.004.012-.004-1.263-3.795Zm56.265-19.234 1.328 3.772.904-.318.661-.693-2.893-2.761Zm12.123-13.34-3.016-2.628-.009.011 3.025 2.617Zm12.745-14.58-2.993-2.654-.008.008-.007.009 3.008 2.637Zm13.056-14.891-3.016-2.628-.009.01 3.025 2.618Zm12.434-13.65 2.894 2.762.065-.068.061-.071-3.02-2.623Zm52.845-3.102 3.045 2.593.038-.044.036-.045-3.119-2.504Zm-9.947 11.788-3.07-2.564-.044.052-.041.053 3.155 2.459Zm-8.704 11.168 2.825 2.832.177-.176.153-.197-3.155-2.459Zm-3.109 4.343-3.576-1.791-4.932 9.843 10.101-4.382-1.593-3.67Zm31.707-14.27-1.657-3.64-.012.005-.012.006 1.681 3.629Zm36.681-17.372-1.739-3.602-.012.005-.011.006 1.762 3.591Zm136.776-85.002 2.825 2.832.019-.019.018-.018-2.862-2.795Zm20.516-22.336-3.04-2.598-.007.007 3.047 2.591Zm14.61-20.164-3.437-2.045-.01.016-.01.017 3.457 2.012Zm-30.463-44.362 1.723 3.61.021-.01.021-.01-1.765-3.59ZM641.25 66.018l2.479 3.139.004-.004-2.483-3.135Zm-63.103 58.011 2.85 2.807.006-.007.007-.006-2.863-2.794ZM21.719 444.49l-3.275 2.297.073.105.08.1 3.122-2.502Zm6.217 4.964-1.786 3.579.056.028.056.026 1.674-3.633Zm8.704 2.792-.783 3.922.023.005.024.004.736-3.931Zm49.114-7.136 1.61 3.662.026-.011.026-.012-1.662-3.639Zm35.438-22.025-2.468-3.148-.014.011-.014.011 2.496 3.126Zm33.883-31.333-2.901-2.754-.013.014-.013.013 2.927 2.727Zm33.572-36.606 2.992 2.654.246-.276.19-.317-3.428-2.061Zm4.352-4.964 2.826 2.831-4.041-6.642 1.215 3.811Zm-120.3 39.709-1.471-3.72-.012.005-.012.005 1.495 3.71Zm-27.977 13.96 2.068 3.424.032-.02.033-.02-2.133-3.384ZM26.07 419.362l-3.099-2.53-.005.007-.006.007 3.11 2.516Zm451.567-232.199a721.584 721.584 0 0 1 46.062-47.82l-5.5-5.809a729.55 729.55 0 0 0-46.573 48.349l6.011 5.28Zm46.062-47.82c16.093-15.237 32.177-29.333 48.253-42.291l-5.02-6.229c-16.253 13.101-32.497 27.339-48.733 42.711l5.5 5.809Zm48.234-42.275c16.293-12.967 32.158-24.584 47.596-34.855l-4.431-6.66c-15.648 10.41-31.697 22.163-48.147 35.255l4.982 6.26Zm47.627-34.876c15.453-10.487 29.841-19.304 43.167-26.465l-3.787-7.047c-13.615 7.316-28.241 16.285-43.873 26.893l4.493 6.62Zm43.186-26.475c13.56-7.382 25.601-12.976 36.138-16.818l-2.74-7.516c-11.016 4.017-23.429 9.798-37.223 17.307l3.825 7.027Zm36.201-16.842c10.59-4.064 18.865-5.938 24.989-5.938v-8c-7.552 0-16.892 2.262-27.856 6.47l2.867 7.468Zm24.989-5.938c2.414 0 4.726.428 6.96 1.285l2.867-7.469a27.226 27.226 0 0 0-9.827-1.816v8Zm6.96 1.285c1.984.761 3.824 2.08 5.513 4.103l6.14-5.127c-2.455-2.941-5.382-5.138-8.786-6.445l-2.867 7.469Zm5.513 4.103c1.631 1.953 3.076 4.732 4.213 8.515l7.661-2.303c-1.349-4.49-3.22-8.329-5.734-11.34l-6.14 5.128Zm4.23 8.57c1.078 3.406 1.679 7.927 1.679 13.684h8c0-6.238-.643-11.644-2.052-16.097l-7.627 2.413Zm1.679 13.684c0 13.931-3.727 27.414-11.277 40.502l6.929 3.998c8.199-14.212 12.348-29.063 12.348-44.5h-8Zm-11.277 40.502c-7.648 13.256-18.057 26.086-31.288 38.478l5.469 5.839c13.71-12.84 24.646-26.276 32.748-40.32l-6.929-3.997Zm-31.31 38.499c-13.06 12.422-28.403 24.372-46.051 35.84l4.359 6.708c17.996-11.694 33.738-23.942 47.205-36.751l-5.513-5.797Zm-46.042 35.834c-17.512 11.308-36.167 22.212-55.968 32.71l3.747 7.068c19.989-10.597 38.843-21.616 56.561-33.057l-4.34-6.721Zm-55.954 32.703a1631.561 1631.561 0 0 1-60.159 30.018l3.426 7.23a1641.199 1641.199 0 0 0 60.453-30.166l-3.72-7.082Zm-60.129 30.004a25009.45 25009.45 0 0 1-59.053 27.295l3.347 7.267c18.862-8.688 38.553-17.79 59.072-27.304l-3.366-7.258Zm-58.952 27.251a155.444 155.444 0 0 0-8.295 3.821l3.572 7.158c2.408-1.201 5.03-2.41 7.869-3.624l-3.146-7.355Zm-8.045 3.707-3.73 1.551-3.731 1.551 3.072 7.387 3.73-1.551 3.731-1.552-3.072-7.386Zm-8.932 4.158a1540.965 1540.965 0 0 1-31.936 35.274l5.85 5.457a1549.78 1549.78 0 0 0 32.101-35.457l-6.015-5.274Zm-31.961 35.301a28367.271 28367.271 0 0 0-32.333 35.371l5.909 5.393a29150.083 29150.083 0 0 1 32.324-35.361l-5.9-5.403Zm-32.309 35.345a1920.646 1920.646 0 0 0-30.216 33.263l5.987 5.306a1913.073 1913.073 0 0 1 30.09-33.124l-5.861-5.445Zm-30.244 33.296c-9.363 10.796-17.698 20.881-25.001 30.253l6.31 4.918c7.202-9.242 15.446-19.218 24.735-29.93l-6.044-5.241Zm-25.036 30.297c-7.129 9.418-12.847 18.07-17.114 25.948l7.034 3.81c4.023-7.426 9.496-15.733 16.459-24.929l-6.379-4.829Zm-17.092 25.907c-4.268 7.669-6.722 14.588-6.722 20.559h8c0-3.955 1.691-9.445 5.712-16.667l-6.99-3.892Zm-6.722 20.559c0 4.436.376 8.319 1.217 11.554.834 3.211 2.204 6.082 4.416 8.132l5.438-5.867c-.689-.639-1.495-1.904-2.111-4.277-.611-2.349-.96-5.498-.96-9.542h-8Zm5.752 19.792c4.08 3.49 10.784 4.683 18.765 4.683v-8c-7.769 0-11.842-1.289-13.565-2.762l-5.2 6.079Zm18.765 4.683c9.1 0 19.371-1.403 30.776-4.143l-1.869-7.779c-10.976 2.637-20.6 3.922-28.907 3.922v8Zm30.844-4.16c11.313-2.927 22.824-6.479 34.534-10.652l-2.685-7.536c-11.501 4.099-22.785 7.579-33.853 10.443l2.004 7.745Zm34.513-10.645a464.034 464.034 0 0 0 34.805-13.769l-3.244-7.313a455.665 455.665 0 0 1-34.205 13.531l2.644 7.551Zm34.78-13.758c11.431-4.977 21.731-9.65 30.898-14.016l-3.44-7.222c-9.07 4.319-19.286 8.954-30.652 13.904l3.194 7.334Zm25.487-16.086 3.108 7.445 7.382-3.082-3.108-7.445-7.382 3.082Zm5.051 2.306c-31.398 15.255-59.747 27.288-85.054 36.118l2.635 7.553c25.673-8.957 54.314-21.121 85.915-36.475l-3.496-7.196Zm-85.054 36.118c-25.262 8.813-46.446 13.116-63.651 13.116v8c18.439 0 40.568-4.59 66.286-13.563l-2.635-7.553Zm-63.651 13.116c-4.752 0-9.729-.395-14.936-1.195l-1.214 7.908c5.571.855 10.955 1.287 16.15 1.287v-8Zm-14.936-1.195c-4.9-.752-9.388-2.343-13.496-4.765l-4.063 6.891c5.01 2.955 10.47 4.88 16.345 5.782l1.214-7.908Zm-13.496-4.765c-3.921-2.313-7.181-5.625-9.769-10.052l-6.907 4.037c3.216 5.501 7.416 9.841 12.613 12.906l4.063-6.891Zm-9.769-10.052c-2.42-4.139-3.805-9.979-3.805-17.835h-8c0 8.689 1.516 16.085 4.898 21.872l6.907-4.037Zm-3.805-17.835c0-5.169 2.291-12.298 7.562-21.606l-6.961-3.943c-5.504 9.719-8.601 18.308-8.601 25.549h8Zm7.562-21.606c5.267-9.299 12.61-20.1 22.073-32.418l-6.344-4.874c-9.602 12.5-17.18 23.621-22.69 33.349l6.961 3.943Zm22.073-32.418c9.477-12.336 20.618-25.926 33.429-40.773l-6.057-5.227c-12.886 14.935-24.127 28.644-33.716 41.126l6.344 4.874Zm33.429-40.773a6580.983 6580.983 0 0 1 41.629-47.746l-6.006-5.284a6614.143 6614.143 0 0 0-41.68 47.803l6.057 5.227Zm37.294-54.16a2290.402 2290.402 0 0 1-39.72 13.626l2.525 7.591a2306.12 2306.12 0 0 0 39.859-13.673l-2.664-7.544Zm-39.72 13.626c-13.092 4.356-25.565 8.712-37.42 13.071l2.761 7.509c11.77-4.328 24.164-8.657 37.184-12.989l-2.525-7.591Zm-37.414 13.069a664.294 664.294 0 0 1-18.54 6.476l2.526 7.591a673.8 673.8 0 0 0 18.763-6.554l-2.749-7.513Zm-18.54 6.476a2211.54 2211.54 0 0 0-19.308 6.526l2.596 7.567a2184.53 2184.53 0 0 1 19.238-6.502l-2.526-7.591Zm-20.959 7.608a10061.769 10061.769 0 0 0-19.281 21.103l5.914 5.388c6.215-6.822 12.636-13.851 19.266-21.087l-5.899-5.404Zm-19.326 21.153c-5.957 6.765-11.908 13.114-17.853 19.046l5.651 5.663c6.075-6.062 12.144-12.537 18.206-19.422l-6.004-5.287Zm-17.919 19.114a598.991 598.991 0 0 1-40.452 38.521l5.244 6.042a607.082 607.082 0 0 0 40.991-39.035l-5.783-5.528Zm-40.452 38.521c-14.139 12.269-28.882 23.099-44.229 32.493l4.176 6.823c15.738-9.633 30.837-20.726 45.297-33.274l-5.244-6.042Zm-44.196 32.473c-15.306 9.164-31.106 16.487-47.404 21.977l2.553 7.581c16.86-5.678 33.181-13.246 48.961-22.695l-4.11-6.863Zm-47.419 21.982c-15.958 5.443-32.308 8.161-49.067 8.161v8c17.643 0 34.865-2.865 51.65-8.59l-2.583-7.571Zm-49.067 8.161c-5.13 0-10.266-.492-15.41-1.479l-1.508 7.857a89.574 89.574 0 0 0 16.918 1.622v-8Zm-15.233-1.441c-4.825-1.155-9.103-2.873-12.865-5.126l-4.11 6.864c4.528 2.711 9.576 4.716 15.112 6.042l1.863-7.78Zm-12.743-5.049a30.555 30.555 0 0 1-9.083-9.065l-6.704 4.366c3 4.606 6.82 8.417 11.434 11.41l4.353-6.711Zm-8.964-8.87C9.145 445.737 8 441.089 8 435.183H0c0 6.917 1.341 13.024 4.259 18.12l6.942-3.976ZM8 435.183c0-7.29 2.905-14.323 9.204-21.181l-5.892-5.412C3.933 416.623 0 425.515 0 435.183h8Zm9.163-21.137c6.719-7.1 15.504-13.799 26.439-20.064l-3.977-6.942c-11.447 6.558-20.899 13.715-28.272 21.507l5.81 5.499Zm26.459-20.076c11.186-6.495 23.942-12.508 38.285-18.029l-2.874-7.466c-14.67 5.647-27.818 11.836-39.428 18.577l4.017 6.918Zm38.33-18.047a624.185 624.185 0 0 1 44.17-15.721l-2.4-7.631a631.343 631.343 0 0 0-44.735 15.922l2.966 7.43Zm44.202-15.731c15.273-4.943 30.231-9.37 44.874-13.28l-2.064-7.73c-14.785 3.949-29.876 8.415-45.274 13.399l2.464 7.611Zm44.924-13.294c14.729-4.141 28.012-7.973 39.848-11.495l-2.282-7.668c-11.789 3.509-25.032 7.329-39.731 11.461l2.165 7.702Zm41.699-12.674L328.414 203.93l-5.983-5.31-115.638 130.294 5.984 5.31Zm115.644-130.301c18.414-20.855 37.554-41.814 57.42-62.879l-5.82-5.489c-19.924 21.126-39.123 42.15-57.597 63.072l5.997 5.296Zm57.42-62.879c19.736-20.927 41.85-40.74 66.35-59.438l-4.854-6.36c-24.821 18.944-47.263 39.046-67.316 60.309l5.82 5.489Zm61.708-65.948c-2.296 1.528-5.45 3.306-9.518 5.335l3.572 7.159c4.222-2.107 7.699-4.051 10.377-5.833l-4.431-6.66Zm-9.592 5.373c-3.788 1.99-8.003 3.895-12.651 5.71l2.91 7.452c4.885-1.908 9.374-3.933 13.461-6.08l-3.72-7.082Zm-12.508 5.657a152.977 152.977 0 0 1-14.541 4.232l1.864 7.78a160.99 160.99 0 0 0 15.301-4.454l-2.624-7.558Zm-14.423 4.206c-4.736.984-9.229 1.467-13.485 1.467v8c4.862 0 9.902-.551 15.113-1.635l-1.628-7.832Zm-13.485 1.467c-6.002 0-10.628-1.397-14.153-3.91l-4.644 6.514c5.178 3.69 11.536 5.396 18.797 5.396v-8Zm-14.153-3.91c-2.868-2.044-4.85-5.978-4.85-13.185h-8c0 8.51 2.369 15.538 8.206 19.699l4.644-6.515Zm-4.85-13.185v-26.68h-8v26.68h8Zm0-26.68c0-2.56-.731-5.3-3.059-7.158l-4.991 6.252c-.084-.067-.098-.128-.071-.059.039.1.121.39.121.966h8Zm-2.729-6.864c-1.888-1.883-4.302-2.72-6.867-2.72v8c.752 0 1.031.199 1.216.383l5.651-5.663Zm-6.867-2.72c-3.28 0-6.79 1.306-10.351 3.305l3.916 6.976c3.071-1.724 5.157-2.28 6.435-2.28v-8Zm-10.448 3.36c-3.554 2.13-8.091 6.046-13.515 11.46l5.651 5.662c5.352-5.342 9.312-8.663 11.974-10.258l-4.11-6.863Zm-8.017 11.315-6.217-5.584-5.346 5.951 6.217 5.584 5.346-5.951Zm-5.877.023c6.863-7.857 13.063-12.882 18.571-15.447l-3.378-7.252c-6.927 3.225-13.99 9.16-21.218 17.436l6.025 5.263Zm18.668-15.494c5.54-2.765 12.358-4.233 20.595-4.233v-8c-9.171 0-17.273 1.634-24.167 5.074l3.572 7.159Zm20.595-4.233c9.499 0 15.283 1.656 18.332 4.09l4.991-6.252c-5.24-4.184-13.342-5.838-23.323-5.838v8Zm18.506 4.221c3.158 2.251 4.849 5.505 4.849 10.393h8c0-7.108-2.66-12.954-8.206-16.907l-4.643 6.514Zm4.849 10.393c0 4.166.434 7.843 1.45 10.884l7.588-2.535c-.642-1.923-1.038-4.657-1.038-8.35h-8Zm1.486 10.986c.958 2.629 2.258 4.956 4.041 6.736l5.651-5.663c-.704-.702-1.476-1.89-2.176-3.812l-7.516 2.739Zm4.266 6.944c1.776 1.519 3.725 2.681 5.856 3.289l2.193-7.694c-.771-.22-1.723-.711-2.848-1.674l-5.201 6.079Zm5.984 3.323c1.965.49 3.948.74 5.942.74v-8c-1.322 0-2.654-.165-4.005-.502l-1.937 7.762Zm5.942.74c7.232 0 15.224-1.092 23.949-3.216l-1.892-7.773c-8.268 2.012-15.611 2.989-22.057 2.989v8Zm23.949-3.216c8.645-2.104 17.688-4.834 27.125-8.183l-2.675-7.54c-9.213 3.27-17.994 5.918-26.342 7.95l1.892 7.773Zm27.199-8.21a461.858 461.858 0 0 0 28.535-11.89l-3.317-7.28a453.908 453.908 0 0 1-28.04 11.685l2.822 7.485Zm28.505-11.878c9.8-4.37 19.189-8.846 28.167-13.43l-3.638-7.125a585.319 585.319 0 0 1-27.787 13.249l3.258 7.306Zm28.167-13.43a2465.52 2465.52 0 0 0 25.22-13.05l-3.72-7.083a2459.451 2459.451 0 0 1-25.138 13.008l3.638 7.125Zm25.292-13.09c7.886-4.349 14.743-8.184 20.566-11.505l-3.963-6.95a1664.389 1664.389 0 0 1-20.467 11.45l3.864 7.006ZM573.92 8.19l6.217 5.584 5.346-5.952-6.217-5.584-5.346 5.952Zm6.74-.765c-17.347 11.054-34.473 23.561-51.377 37.515l5.093 6.17c16.668-13.76 33.53-26.071 50.583-36.939l-4.299-6.746Zm-51.396 37.53a955.372 955.372 0 0 0-48.072 42.991l5.533 5.779a947.224 947.224 0 0 1 47.67-42.631l-5.131-6.139Zm-48.052 42.972c-15.387 14.526-29.844 28.954-43.371 43.284l5.817 5.491c13.414-14.21 27.762-28.53 43.046-42.958l-5.492-5.817Zm-43.351 43.263c-13.501 14.095-25.457 27.064-35.864 38.904l6.009 5.281c10.316-11.737 22.192-24.62 35.632-38.652l-5.777-5.533ZM402 170.09 284.497 303.486l6.003 5.288 117.503-133.396L402 170.09ZM288.694 309.947a5277.98 5277.98 0 0 0 56.308-18.006l-2.477-7.607a5290.549 5290.549 0 0 1-56.222 17.979l2.391 7.634Zm56.332-18.014c19.914-6.625 38.691-13.043 56.33-19.257l-2.657-7.545c-17.591 6.196-36.323 12.599-56.198 19.211l2.525 7.591Zm57.895-20.268c4.19-4.39 8.275-8.884 12.255-13.483l-6.05-5.235a366 366 0 0 1-11.992 13.195l5.787 5.523Zm12.246-13.473c4.142-4.754 8.387-9.611 12.737-14.571l-6.016-5.274a6411.516 6411.516 0 0 0-12.753 14.589l6.032 5.256Zm12.722-14.555a1669.372 1669.372 0 0 0 13.087-14.927l-6.049-5.235a1669.559 1669.559 0 0 1-13.024 14.855l5.986 5.307Zm13.078-14.916a403.15 403.15 0 0 1 12.313-13.516l-5.788-5.524a412.088 412.088 0 0 0-12.556 13.784l6.031 5.256Zm12.439-13.655 24.247-27.92-6.04-5.246-24.247 27.92 6.04 5.246Zm46.78-8.319a1570.365 1570.365 0 0 0-9.972 11.818l6.14 5.128c3.1-3.712 6.407-7.631 9.922-11.759l-6.09-5.187Zm-10.057 11.923-4.352 5.584-4.352 5.584 6.31 4.918 4.352-5.584 4.352-5.584-6.31-4.918Zm-8.375 10.796a20.548 20.548 0 0 0-3.859 5.383l7.153 3.583a12.553 12.553 0 0 1 2.357-3.303l-5.651-5.663Zm1.31 10.844c9.568-4.152 20.168-8.923 31.796-14.311l-3.363-7.258c-11.582 5.366-22.121 10.109-31.618 14.23l3.185 7.339Zm31.772-14.299a1401.908 1401.908 0 0 0 36.786-17.423l-3.525-7.181a1392.931 1392.931 0 0 1-36.576 17.323l3.315 7.281Zm36.763-17.411a1372.323 1372.323 0 0 0 38.97-19.602l-3.706-7.089a1365.626 1365.626 0 0 1-38.743 19.487l3.479 7.204Zm38.97-19.602c13.124-6.86 25.732-13.931 37.824-21.213l-4.127-6.853c-11.948 7.195-24.415 14.187-37.403 20.977l3.706 7.089Zm37.824-21.213c12.103-7.289 23.385-14.69 33.842-22.204l-4.668-6.497c-10.266 7.377-21.365 14.66-33.301 21.848l4.127 6.853Zm33.842-22.204c10.502-7.546 19.585-15.128 27.225-22.753l-5.651-5.663c-7.28 7.266-16.02 14.574-26.242 21.919l4.668 6.497Zm27.262-22.79c7.923-8.116 14.827-15.63 20.702-22.54l-6.095-5.182c-5.73 6.74-12.505 14.117-20.331 22.133l5.724 5.589Zm20.695-22.532c6.13-7.172 11.15-14.089 15.027-20.752l-6.915-4.023c-3.584 6.16-8.303 12.686-14.193 19.578l6.081 5.197Zm15.007-20.718c4.095-6.883 7.146-13.822 9.116-20.814l-7.7-2.17c-1.76 6.243-4.512 12.54-8.291 18.894l6.875 4.09Zm9.116-20.814c1.97-6.99 2.948-14.284 2.948-21.87h-8c0 6.89-.887 13.453-2.648 19.7l7.7 2.17Zm2.948-21.87c0-4.654-.932-8.85-3.082-12.337l-6.81 4.199c1.166 1.89 1.892 4.518 1.892 8.138h8Zm-3.082-12.337c-1.752-2.841-4.448-5.934-8.379-5.934v8c-.324 0-.356-.147-.032.116.354.287.906.89 1.601 2.017l6.81-4.2Zm-8.379-5.934c-9.634 0-21.805 3.845-36.269 10.959l3.53 7.178c14.134-6.95 24.966-10.137 32.739-10.137v-8Zm-36.227 10.938c-14.673 7.003-31.618 18.162-50.808 33.358l4.966 6.271c18.942-14.999 35.362-25.762 49.288-32.41l-3.446-7.219Zm-50.804 33.354c-19.034 15.03-40.198 34.493-63.487 58.358l5.726 5.587c23.132-23.703 44.036-42.914 62.719-57.666l-4.958-6.279Zm-63.475 58.345c-23.327 23.696-48.389 52.24-75.184 85.614l6.238 5.008c26.672-33.221 51.554-61.551 74.647-85.009l-5.701-5.613ZM15.543 437.045c0 3.593.912 6.906 2.9 9.742l6.55-4.594c-.912-1.3-1.45-2.951-1.45-5.148h-8Zm3.055 9.947c2.037 2.541 4.573 4.554 7.552 6.041l3.572-7.159c-1.995-.995-3.604-2.291-4.882-3.886l-6.242 5.004Zm7.664 6.095c2.998 1.38 6.2 2.404 9.595 3.081l1.566-7.845c-2.823-.563-5.423-1.401-7.814-2.503l-3.347 7.267Zm9.642 3.09c3.569.668 7.235.999 10.994.999v-8c-3.287 0-6.46-.289-9.523-.862l-1.471 7.863Zm10.994.999c14.218 0 27.72-2.798 40.467-8.404l-3.22-7.323c-11.708 5.149-24.11 7.727-37.247 7.727v8Zm40.518-8.427c12.55-5.731 24.639-13.251 36.272-22.538l-4.992-6.252c-11.163 8.912-22.698 16.076-34.603 21.513l3.323 7.277Zm36.244-22.517c11.783-9.239 23.229-19.827 34.341-31.753l-5.853-5.454c-10.855 11.651-21.997 21.951-33.424 30.912l4.936 6.295Zm34.316-31.726a1473.227 1473.227 0 0 0 33.663-36.706l-5.984-5.309a1467.414 1467.414 0 0 1-33.481 36.507l5.802 5.508Zm34.099-37.299c.511-.85.94-1.39 1.263-1.712l-5.651-5.662c-.921.919-1.735 2.033-2.468 3.252l6.856 4.122Zm1.263-1.712 1.088-1.086 1.399-1.396-5.652-5.662-1.398 1.396-1.088 1.086 5.651 5.662Zm-1.554-9.124a3336.303 3336.303 0 0 1-43.778 13.634l2.325 7.654a3337.96 3337.96 0 0 0 43.883-13.666l-2.43-7.622Zm-43.778 13.634c-14.335 4.354-27.948 8.709-40.84 13.067l2.562 7.579c12.805-4.329 26.34-8.659 40.603-12.992l-2.325-7.654Zm-40.84 13.067c-12.903 4.362-24.883 8.728-35.938 13.099l2.942 7.439c10.912-4.315 22.764-8.635 35.558-12.959l-2.562-7.579Zm-35.962 13.109c-10.947 4.411-20.495 9.168-28.615 14.286l4.266 6.768c7.63-4.81 16.733-9.36 27.339-13.634l-2.99-7.42Zm-28.55 14.246c-8.164 4.931-14.765 10.384-19.682 16.405l6.197 5.06c4.202-5.147 10.035-10.035 17.62-14.617l-4.135-6.848ZM22.96 416.846c-4.88 6.029-7.418 12.797-7.418 20.199h8c0-5.421 1.812-10.441 5.637-15.167l-6.219-5.032Z" mask="url(#a)"/></svg>