<svg width="2207" height="474" viewBox="0 0 2207 474" fill="none" xmlns="http://www.w3.org/2000/svg">
<path d="M474.633 183.309C489.346 166.557 504.785 150.529 520.95 135.224C537.114 119.92 553.278 105.753 569.443 92.7238C585.814 79.6945 601.772 68.0094 617.314 57.6686C632.857 47.121 647.364 38.228 660.834 30.9894C674.512 23.5441 686.738 17.8566 697.515 13.9271C708.291 9.79083 717.099 7.72268 723.937 7.72268C726.839 7.72268 729.636 8.23972 732.33 9.2738C735.024 10.3079 737.408 12.0658 739.48 14.5476C741.552 17.0294 743.21 20.3384 744.454 24.4747C745.697 28.4042 746.319 33.3678 746.319 39.3655C746.319 54.0494 742.381 68.2162 734.506 81.866C726.631 95.5159 715.959 108.649 702.488 121.264C689.225 133.88 673.682 145.979 655.86 157.561C638.245 168.935 619.49 179.897 599.596 190.444C579.908 200.785 559.806 210.815 539.29 220.536C518.774 230.049 499.086 239.149 480.228 247.835C477.327 249.076 474.633 250.317 472.146 251.558C469.659 252.592 467.172 253.626 464.685 254.66C454.531 266.242 443.858 278.031 432.667 290.026C421.684 302.021 410.907 313.81 400.338 325.391C389.769 336.766 379.719 347.831 370.186 358.585C360.86 369.34 352.571 379.37 345.318 388.677C338.271 397.984 332.676 406.463 328.531 414.115C324.386 421.56 322.314 427.765 322.314 432.729C322.314 441.208 323.765 446.792 326.666 449.481C329.567 451.962 334.956 453.203 342.831 453.203C351.534 453.203 361.482 451.859 372.673 449.17C383.863 446.275 395.261 442.759 406.866 438.623C418.679 434.486 430.18 429.937 441.371 424.973C452.769 420.009 463.027 415.356 472.146 411.013L475.254 418.458C443.754 433.763 415.259 445.861 389.769 454.754C364.279 463.647 342.623 468.094 324.801 468.094C319.827 468.094 314.647 467.68 309.258 466.853C303.87 466.026 298.897 464.268 294.337 461.579C289.778 458.891 286.048 455.065 283.147 450.101C280.245 445.137 278.795 438.519 278.795 430.247C278.795 424.042 281.489 416.183 286.877 406.67C292.265 397.156 299.726 386.195 309.258 373.786C318.791 361.377 329.982 347.727 342.831 332.837C355.679 317.946 369.564 302.021 384.485 285.062C371.015 289.819 357.751 294.369 344.696 298.712C331.64 303.055 319.206 307.398 307.393 311.741C301.176 314.016 294.959 316.188 288.742 318.256C282.525 320.324 276.101 322.496 269.469 324.771C262.838 332.009 256.413 339.041 250.196 345.866C244.186 352.691 238.176 359.102 232.167 365.1C219.318 378.543 205.744 391.469 191.445 403.878C177.146 416.287 162.224 427.248 146.682 436.761C131.139 446.068 115.078 453.514 98.4995 459.098C82.1279 464.682 65.3418 467.474 48.1412 467.474C42.7531 467.474 37.3648 466.957 31.9767 465.922C26.7958 464.682 22.1332 462.82 17.9885 460.338C13.8438 457.65 10.4242 454.237 7.73011 450.101C5.24328 445.758 4 440.381 4 433.969C4 425.49 7.41932 417.528 14.2581 410.082C21.3041 402.637 30.4225 395.709 41.6132 389.297C53.0112 382.679 65.9634 376.578 80.4699 370.994C94.9764 365.203 109.794 359.929 124.922 355.173C140.258 350.209 155.282 345.763 169.996 341.833C184.71 337.697 197.973 333.871 209.785 330.355L325.423 200.061C343.867 179.173 363.036 158.181 382.931 137.086C402.825 115.991 425.103 96.0329 449.764 77.2127C447.277 78.8672 443.962 80.7286 439.817 82.7967C435.88 84.8649 431.527 86.8296 426.761 88.6909C421.995 90.3455 417.021 91.7932 411.84 93.0341C406.866 94.0681 402.1 94.5852 397.541 94.5852C390.909 94.5852 385.418 93.0341 381.066 89.9318C376.714 86.8296 374.538 81.349 374.538 73.49V46.8108C374.538 44.9495 374.02 43.6052 372.983 42.7779C371.947 41.7438 370.6 41.2268 368.942 41.2268C366.663 41.2268 363.865 42.1575 360.549 44.0188C357.441 45.8801 353.192 49.4994 347.804 54.8766L341.587 49.2926C348.633 41.2268 355.265 35.7462 361.482 32.8508C367.699 29.7485 375.159 28.1974 383.863 28.1974C393.603 28.1974 400.546 29.8519 404.69 33.161C409.042 36.2632 411.218 40.8132 411.218 46.8108C411.218 50.7403 411.633 53.9459 412.462 56.4277C413.291 58.7027 414.327 60.4606 415.57 61.7015C417.021 62.9424 418.472 63.7697 419.922 64.1833C421.58 64.5969 423.238 64.8038 424.896 64.8038C431.735 64.8038 439.402 63.7697 447.899 61.7015C456.396 59.6334 465.307 56.9448 474.633 53.6357C483.958 50.1199 493.387 46.1904 502.92 41.8472C512.66 37.5041 521.986 33.0576 530.897 28.5076C539.808 23.9577 548.201 19.6146 556.076 15.4783C563.951 11.1351 570.79 7.30905 576.593 4L582.81 9.58402C565.609 20.5452 548.616 32.9542 531.83 46.8108C515.251 60.6674 499.294 74.9377 483.958 89.6216C468.623 104.099 454.22 118.472 440.75 132.743C427.279 146.806 415.363 159.732 405.001 171.521L287.498 304.917C305.321 299.333 324.076 293.335 343.763 286.924C363.658 280.306 382.412 273.894 400.027 267.69C404.172 263.347 408.213 258.9 412.151 254.35C416.296 249.593 420.544 244.733 424.896 239.77C429.662 234.392 434.014 229.429 437.952 224.879C442.096 220.122 446.241 215.572 450.386 211.229L474.633 183.309ZM503.231 208.127C499.708 212.263 496.392 216.193 493.284 219.915C490.383 223.638 487.481 227.361 484.58 231.083C483.336 232.324 482.3 233.772 481.471 235.427C491.004 231.29 501.573 226.533 513.178 221.156C524.991 215.779 537.218 209.988 549.859 203.784C562.708 197.579 575.66 191.065 588.716 184.24C601.772 177.415 614.309 170.383 626.329 163.145C638.349 155.906 649.539 148.564 659.901 141.119C670.263 133.673 679.174 126.228 686.635 118.783C694.51 110.717 701.349 103.271 707.151 96.4465C713.161 89.4148 718.031 82.6933 721.761 76.282C725.699 69.6639 728.6 63.0458 730.465 56.4277C732.33 49.8096 733.263 42.8813 733.263 35.6428C733.263 31.5065 732.434 28.094 730.776 25.4054C729.118 22.7168 727.46 21.3725 725.802 21.3725C717.099 21.3725 705.597 24.8884 691.298 31.9201C676.998 38.745 660.316 49.7062 641.25 64.8038C622.392 79.6945 601.357 99.0317 578.147 122.816C554.936 146.392 529.964 174.83 503.231 208.127ZM19.5426 435.831C19.5426 438.726 20.268 441.208 21.7186 443.276C23.3765 445.344 25.4488 446.999 27.9357 448.24C30.6297 449.481 33.5311 450.411 36.6396 451.032C39.9554 451.652 43.3747 451.962 46.8978 451.962C60.5753 451.962 73.5275 449.274 85.7544 443.897C97.9814 438.313 109.794 430.971 121.192 421.871C132.797 412.771 144.091 402.327 155.075 390.538C166.266 378.75 177.456 366.548 188.647 353.932C189.269 352.898 189.891 352.07 190.512 351.45C191.134 350.83 191.963 350.002 192.999 348.968C178.078 353.725 163.468 358.275 149.169 362.618C134.869 366.961 121.296 371.304 108.447 375.647C95.5983 379.991 83.6823 384.334 72.6988 388.677C61.9225 393.02 52.5967 397.673 44.7218 402.637C36.8468 407.394 30.6298 412.564 26.0706 418.148C21.7187 423.525 19.5426 429.419 19.5426 435.831Z" fill="white"/>
<path d="M630.875 468.094H550.66V46.2301H628.328V78.6322H585.674V231.113H623.872V262.88H585.674V436.327H630.875V468.094Z" fill="white"/>
<path d="M750.263 468.094H715.248L708.882 359.451H677.687L671.958 468.094H637.58L665.591 46.2301H721.615L750.263 468.094ZM692.33 107.222L679.597 328.955H706.972L694.876 107.222H692.33Z" fill="white"/>
<path d="M820.466 468.094H764.443L736.431 46.2301H771.445L791.818 390.583H794.364L814.736 46.2301H849.114L820.466 468.094Z" fill="white"/>
<path d="M939.864 468.094H859.649V46.2301H937.317V78.6322H894.663V231.113H932.861V262.88H894.663V436.327H939.864V468.094Z" fill="white"/>
<path d="M1061.16 468.094H1014.69L981.583 130.095H979.036C980.309 151.061 980.309 180.286 980.309 284.482V468.094H951.661V46.2301H1002.59L1030.6 381.053H1033.15C1032.51 355.004 1031.24 318.154 1031.24 195.534V46.2301H1061.16V468.094Z" fill="white"/>
<path d="M1158.75 468.094H1076.62V46.2301H1112.28V435.692H1158.75V468.094Z" fill="white"/>
<path d="M1212.54 468.094H1176.89V294.012L1137.42 46.2301H1173.71L1193.44 205.064H1195.99L1214.45 46.2301H1250.74L1212.54 294.012V468.094Z" fill="white"/>
<path d="M1402.09 418.538V295.918H1435.83V416.632C1435.83 452.846 1418.64 470 1386.81 470C1353.07 470 1335.88 450.94 1335.88 415.996V99.5984C1335.88 64.0195 1352.43 44.324 1387.44 44.324C1418 44.324 1435.83 59.5721 1435.83 100.234V197.44H1402.09V97.057C1402.09 84.3503 1396.99 77.3616 1386.81 77.3616C1375.98 77.3616 1370.89 84.3503 1370.89 96.4217V417.902C1370.89 431.88 1375.98 437.598 1386.17 437.598C1396.99 437.598 1402.09 431.244 1402.09 418.538Z" fill="white"/>
<path d="M1551.48 100.234V416.632C1551.48 452.846 1533.65 470 1501.19 470C1467.44 470 1449.62 450.94 1449.62 415.996V99.5984C1449.62 64.6548 1468.08 44.324 1500.55 44.324C1533.02 44.324 1551.48 65.2902 1551.48 100.234ZM1516.46 418.538V97.057C1516.46 84.3503 1510.74 77.3616 1500.55 77.3616C1490.36 77.3616 1484.63 84.3503 1484.63 96.4217V418.538C1484.63 431.244 1489.73 437.598 1500.55 437.598C1510.74 437.598 1516.46 431.244 1516.46 418.538Z" fill="white"/>
<path d="M1632.12 418.538V295.918H1665.86V416.632C1665.86 452.846 1648.67 470 1616.84 470C1583.1 470 1565.91 450.94 1565.91 415.996V99.5984C1565.91 64.0195 1582.46 44.324 1617.48 44.324C1648.03 44.324 1665.86 59.5721 1665.86 100.234V197.44H1632.12V97.057C1632.12 84.3503 1627.02 77.3616 1616.84 77.3616C1606.02 77.3616 1600.92 84.3503 1600.92 96.4217V417.902C1600.92 431.88 1606.02 437.598 1616.2 437.598C1627.02 437.598 1632.12 431.244 1632.12 418.538Z" fill="white"/>
<path d="M1787.24 468.094H1751.59L1728.67 287.023H1727.4L1716.58 335.309V468.094H1680.92V46.2301H1716.58V210.782H1719.12L1752.23 46.2301H1787.88L1754.14 209.512L1787.24 468.094Z" fill="white"/>
<path d="M1863.38 468.094H1827.73V78.6322H1795.26V46.2301H1896.48V78.6322H1863.38V468.094Z" fill="white"/>
<path d="M1997.41 468.094H1962.39L1956.03 359.451H1924.83L1919.1 468.094H1884.72L1912.74 46.2301H1968.76L1997.41 468.094ZM1939.47 107.222L1926.74 328.955H1954.12L1942.02 107.222H1939.47Z" fill="white"/>
<path d="M2043.59 468.094H2007.94V46.2301H2043.59V468.094Z" fill="white"/>
<path d="M2141.05 468.094H2058.92V46.2301H2094.57V435.692H2141.05V468.094Z" fill="white"/>
<path d="M2170.35 55.0872L2170.35 62.4246C2170.35 70.1449 2175.2 73.4627 2184.77 73.4627C2194.34 73.4627 2198.17 70.1449 2198.17 61.659L2198.17 55.0872L2170.35 55.0872ZM2163.14 64.2111L2163.14 46.4736L2205.51 46.4736L2205.51 62.8713C2205.51 74.356 2197.66 82.5229 2184.77 82.5229C2171.89 82.5229 2163.14 75.1854 2163.14 64.2111Z" fill="white"/>
<path d="M2163.14 94.0983L2163.14 85.2296L2205.51 85.2296L2205.51 94.0983L2163.14 94.0983Z" fill="white"/>
<path d="M2181.01 124.63L2181.01 105.999L2163.14 105.999L2163.14 97.1305L2205.51 97.1305L2205.51 127.31L2198.11 127.31L2198.11 105.999L2188.47 105.999L2188.47 124.63L2181.01 124.63Z" fill="white"/>
<path d="M2181.01 156.844L2181.01 138.213L2163.14 138.213L2163.14 129.344L2205.51 129.344L2205.51 159.523L2198.11 159.523L2198.11 138.213L2188.47 138.213L2188.47 156.844L2181.01 156.844Z" fill="white"/>
<path d="M2177.25 186.633L2205.51 186.633L2205.51 195.693L2177.25 195.693C2166.97 195.693 2161.68 189.376 2161.68 178.274C2161.68 168.002 2166.53 161.558 2176.73 161.558L2205.51 161.558L2205.51 170.554L2177.56 170.554C2172.33 170.554 2169.01 173.361 2169.01 178.147C2169.01 183.825 2171.69 186.633 2177.25 186.633Z" fill="white"/>
<path d="M2193 231.355L2193 222.933C2197.34 222.486 2199.45 219.87 2199.45 214.511C2199.45 209.534 2197.66 206.918 2194.47 206.918C2191.79 206.918 2190.26 208.769 2189.11 213.49C2187.96 218.275 2186.82 222.933 2185.41 226.059C2183.75 229.76 2181.14 232.695 2175.14 232.695C2165.82 232.695 2161.68 225.677 2161.68 215.787C2161.68 205.323 2166.33 198.049 2175.84 197.858L2175.84 206.408C2171.5 206.535 2168.82 210.172 2168.82 215.851C2168.82 221.083 2171.06 224.082 2174.82 224.082C2177.31 224.082 2179.03 222.805 2180.18 217.51C2181.33 212.278 2182.09 208.896 2183.43 205.897C2185.48 201.367 2188.54 198.815 2193.9 198.815C2201.49 198.815 2206.91 203.983 2206.91 214.32C2206.91 225.039 2201.11 231.036 2193 231.355Z" fill="white"/>
<path d="M2163.14 267.052L2163.14 234.895L2205.51 234.895L2205.51 266.031L2198.11 266.031L2198.11 243.508L2189.05 243.508L2189.05 264.245L2181.58 264.245L2181.58 243.508L2170.67 243.508L2170.67 267.052L2163.14 267.052Z" fill="white"/>
<path d="M2198.17 288.887L2198.17 277.467L2186.88 277.467L2186.88 288.568C2186.88 293.29 2189.24 295.076 2192.49 295.076C2195.81 295.076 2198.17 293.29 2198.17 288.887ZM2163.14 302.222L2163.14 293.545L2174.05 293.545C2178.14 293.545 2179.73 292.014 2179.73 286.909L2179.73 277.467L2163.14 277.467L2163.14 268.853L2205.51 268.853L2205.51 290.355C2205.51 298.203 2200.28 303.371 2193.26 303.371C2188.73 303.371 2184.9 301.138 2183.43 297.054C2182.22 300.819 2180.12 302.222 2175.14 302.222L2163.14 302.222Z" fill="white"/>
<path d="M2193 353.542L2193 345.12C2197.34 344.674 2199.45 342.058 2199.45 336.698C2199.45 331.721 2197.66 329.105 2194.47 329.105C2191.79 329.105 2190.26 330.956 2189.11 335.677C2187.96 340.462 2186.82 345.12 2185.41 348.247C2183.75 351.947 2181.14 354.882 2175.14 354.882C2165.82 354.882 2161.68 347.864 2161.68 337.974C2161.68 327.51 2166.33 320.237 2175.84 320.045L2175.84 328.595C2171.5 328.723 2168.82 332.359 2168.82 338.038C2168.82 343.27 2171.06 346.269 2174.82 346.269C2177.31 346.269 2179.03 344.993 2180.18 339.697C2181.33 334.465 2182.09 331.083 2183.43 328.085C2185.48 323.554 2188.54 321.002 2193.9 321.002C2201.49 321.002 2206.91 326.17 2206.91 336.507C2206.91 347.226 2201.11 353.223 2193 353.542Z" fill="white"/>
<path d="M2163.14 391.408L2163.14 382.476L2182.16 382.476L2182.16 365.951L2163.14 365.951L2163.14 357.082L2205.51 357.082L2205.51 365.951L2189.56 365.951L2189.56 382.476L2205.51 382.476L2205.51 391.408L2163.14 391.408Z" fill="white"/>
<path d="M2169.27 414.372C2169.27 420.753 2173.74 425.857 2183.75 425.857C2193.77 425.857 2199.07 421.774 2199.07 414.372C2199.07 406.907 2193.77 402.76 2183.75 402.76C2173.74 402.76 2169.27 407.035 2169.27 414.372ZM2161.68 414.372C2161.68 401.356 2169.65 394.019 2183.94 394.019C2198.3 394.019 2206.91 401.356 2206.91 414.372C2206.91 427.388 2198.3 434.598 2183.75 434.598C2169.21 434.598 2161.68 427.388 2161.68 414.372Z" fill="white"/>
<path d="M2185.73 446.142L2185.73 454.564C2185.73 459.668 2188.35 461.774 2192.05 461.774C2195.56 461.774 2198.17 459.668 2198.17 454.564L2198.17 446.142L2185.73 446.142ZM2163.14 446.142L2163.14 437.273L2205.51 437.273L2205.51 455.968C2205.51 464.262 2199.45 469.558 2191.79 469.558C2184.07 469.558 2178.52 464.262 2178.52 455.968L2178.52 446.142L2163.14 446.142Z" fill="white"/>
<mask id="path-3-outside-1_363_170" maskUnits="userSpaceOnUse" x="0" y="0.213867" width="751" height="474" fill="black">
<rect fill="white" y="0.213867" width="751" height="474"/>
<path d="M474.633 184.523C489.346 167.771 504.786 151.743 520.95 136.438C537.114 121.134 553.278 106.967 569.443 93.9377C585.814 80.9083 601.772 69.2233 617.314 58.8825C632.857 48.3349 647.364 39.4418 660.834 32.2033C674.512 24.7579 686.739 19.0705 697.515 15.141C708.291 11.0047 717.099 8.93655 723.937 8.93655C726.839 8.93655 729.636 9.45359 732.33 10.4877C735.025 11.5217 737.408 13.2797 739.48 15.7615C741.552 18.2432 743.21 21.5523 744.454 25.6886C745.697 29.6181 746.319 34.5817 746.319 40.5793C746.319 55.2632 742.381 69.4301 734.506 83.0799C726.631 96.7297 715.959 109.863 702.488 122.478C689.225 135.094 673.682 147.193 655.86 158.774C638.245 170.149 619.49 181.11 599.596 191.658C579.908 201.999 559.806 212.029 539.29 221.75C518.774 231.263 499.086 240.363 480.228 249.049C477.327 250.29 474.633 251.531 472.146 252.772C469.659 253.806 467.172 254.84 464.685 255.874C454.531 267.456 443.858 279.244 432.667 291.24C421.684 303.235 410.908 315.024 400.338 326.605C389.769 337.98 379.719 349.045 370.186 359.799C360.86 370.553 352.571 380.584 345.318 389.891C338.272 399.197 332.676 407.677 328.531 415.329C324.386 422.774 322.314 428.979 322.314 433.942C322.314 442.422 323.765 448.006 326.666 450.695C329.567 453.176 334.956 454.417 342.831 454.417C351.535 454.417 361.482 453.073 372.673 450.384C383.863 447.489 395.261 443.973 406.866 439.837C418.679 435.7 430.18 431.15 441.371 426.187C452.769 421.223 463.027 416.57 472.146 412.227L475.254 419.672C443.754 434.977 415.259 447.075 389.769 455.968C364.279 464.861 342.623 469.308 324.801 469.308C319.827 469.308 314.647 468.894 309.258 468.067C303.87 467.24 298.897 465.482 294.337 462.793C289.778 460.105 286.048 456.279 283.147 451.315C280.245 446.351 278.795 439.733 278.795 431.461C278.795 425.256 281.489 417.397 286.877 407.884C292.265 398.37 299.726 387.409 309.258 375C318.791 362.591 329.982 348.941 342.831 334.051C355.679 319.16 369.564 303.235 384.485 286.276C371.015 291.033 357.751 295.583 344.696 299.926C331.64 304.269 319.206 308.612 307.393 312.955C301.176 315.23 294.959 317.402 288.742 319.47C282.525 321.538 276.101 323.71 269.469 325.985C262.838 333.223 256.413 340.255 250.196 347.08C244.186 353.905 238.176 360.316 232.167 366.314C219.318 379.757 205.744 392.683 191.445 405.092C177.146 417.501 162.224 428.462 146.682 437.975C131.139 447.282 115.078 454.727 98.4995 460.311C82.1279 465.895 65.3418 468.687 48.1412 468.687C42.7531 468.687 37.3648 468.17 31.9767 467.136C26.7958 465.895 22.1332 464.034 17.9885 461.552C13.8438 458.864 10.4242 455.451 7.73011 451.315C5.24328 446.972 4 441.595 4 435.183C4 426.704 7.41932 418.741 14.2581 411.296C21.3041 403.851 30.4225 396.922 41.6132 390.511C53.0112 383.893 65.9634 377.792 80.4699 372.208C94.9764 366.417 109.794 361.143 124.922 356.387C140.258 351.423 155.282 346.977 169.996 343.047C184.71 338.911 197.973 335.085 209.785 331.569L325.423 201.275C343.867 180.387 363.036 159.395 382.931 138.3C402.825 117.204 425.103 97.2468 449.764 78.4266C447.277 80.0811 443.962 81.9424 439.817 84.0106C435.88 86.0787 431.527 88.0435 426.761 89.9048C421.995 91.5593 417.021 93.0071 411.84 94.2479C406.866 95.282 402.1 95.7991 397.541 95.7991C390.909 95.7991 385.418 94.2479 381.066 91.1457C376.714 88.0435 374.538 82.5629 374.538 74.7039V48.0247C374.538 46.1633 374.02 44.819 372.983 43.9918C371.947 42.9577 370.6 42.4407 368.942 42.4407C366.663 42.4407 363.865 43.3713 360.549 45.2327C357.441 47.094 353.192 50.7133 347.804 56.0905L341.587 50.5065C348.633 42.4407 355.265 36.96 361.482 34.0646C367.699 30.9624 375.159 29.4113 383.863 29.4113C393.603 29.4113 400.546 31.0658 404.69 34.3749C409.042 37.4771 411.218 42.027 411.218 48.0247C411.218 51.9542 411.633 55.1598 412.462 57.6416C413.291 59.9166 414.327 61.6745 415.57 62.9154C417.021 64.1563 418.472 64.9836 419.922 65.3972C421.58 65.8108 423.238 66.0176 424.896 66.0176C431.735 66.0176 439.402 64.9836 447.899 62.9154C456.396 60.8472 465.307 58.1586 474.633 54.8496C483.958 51.3337 493.388 47.4042 502.92 43.0611C512.66 38.718 521.986 34.2714 530.897 29.7215C539.808 25.1716 548.201 20.8284 556.076 16.6921C563.951 12.349 570.79 8.52292 576.593 5.21387L582.81 10.7979C565.609 21.7591 548.616 34.168 531.83 48.0247C515.251 61.8813 499.294 76.1516 483.958 90.8355C468.623 105.313 454.22 119.686 440.75 133.957C427.279 148.02 415.363 160.946 405.001 172.734L287.498 306.13C305.321 300.546 324.076 294.549 343.763 288.138C363.658 281.519 382.413 275.108 400.028 268.904C404.172 264.561 408.214 260.114 412.151 255.564C416.296 250.807 420.544 245.947 424.896 240.984C429.662 235.606 434.014 230.643 437.952 226.093C442.096 221.336 446.241 216.786 450.386 212.443L474.633 184.523ZM503.231 209.341C499.708 213.477 496.392 217.407 493.284 221.129C490.383 224.852 487.481 228.575 484.58 232.297C483.336 233.538 482.3 234.986 481.471 236.64C491.004 232.504 501.573 227.747 513.178 222.37C524.991 216.993 537.218 211.202 549.859 204.998C562.708 198.793 575.66 192.279 588.716 185.454C601.772 178.629 614.309 171.597 626.329 164.358C638.349 157.12 649.539 149.778 659.901 142.333C670.263 134.887 679.174 127.442 686.635 119.996C694.51 111.931 701.349 104.485 707.151 97.6604C713.161 90.6287 718.031 83.9072 721.761 77.4959C725.699 70.8778 728.6 64.2597 730.465 57.6416C732.33 51.0235 733.263 44.0952 733.263 36.8566C733.263 32.7203 732.434 29.3079 730.776 26.6193C729.118 23.9307 727.46 22.5864 725.802 22.5864C717.099 22.5864 705.597 26.1022 691.298 33.134C676.999 39.9589 660.316 50.9201 641.25 66.0176C622.392 80.9083 601.357 100.246 578.147 124.029C554.936 147.606 529.964 176.043 503.231 209.341ZM19.5426 437.045C19.5426 439.94 20.268 442.422 21.7186 444.49C23.3765 446.558 25.4488 448.213 27.9357 449.454C30.6297 450.694 33.5311 451.625 36.6397 452.246C39.9554 452.866 43.3747 453.176 46.8978 453.176C60.5753 453.176 73.5275 450.488 85.7544 445.11C97.9814 439.526 109.794 432.185 121.192 423.085C132.797 413.985 144.091 403.541 155.075 391.752C166.266 379.964 177.456 367.761 188.647 355.146C189.269 354.112 189.891 353.284 190.512 352.664C191.134 352.043 191.963 351.216 192.999 350.182C178.078 354.939 163.468 359.489 149.169 363.832C134.869 368.175 121.296 372.518 108.447 376.861C95.5983 381.204 83.6823 385.548 72.6988 389.891C61.9225 394.234 52.5967 398.887 44.7218 403.851C36.8468 408.608 30.6298 413.778 26.0706 419.362C21.7187 424.739 19.5426 430.633 19.5426 437.045Z"/>
</mask>
<path d="M474.633 184.523C489.346 167.771 504.786 151.743 520.95 136.438C537.114 121.134 553.278 106.967 569.443 93.9377C585.814 80.9083 601.772 69.2233 617.314 58.8825C632.857 48.3349 647.364 39.4418 660.834 32.2033C674.512 24.7579 686.739 19.0705 697.515 15.141C708.291 11.0047 717.099 8.93655 723.937 8.93655C726.839 8.93655 729.636 9.45359 732.33 10.4877C735.025 11.5217 737.408 13.2797 739.48 15.7615C741.552 18.2432 743.21 21.5523 744.454 25.6886C745.697 29.6181 746.319 34.5817 746.319 40.5793C746.319 55.2632 742.381 69.4301 734.506 83.0799C726.631 96.7297 715.959 109.863 702.488 122.478C689.225 135.094 673.682 147.193 655.86 158.774C638.245 170.149 619.49 181.11 599.596 191.658C579.908 201.999 559.806 212.029 539.29 221.75C518.774 231.263 499.086 240.363 480.228 249.049C477.327 250.29 474.633 251.531 472.146 252.772C469.659 253.806 467.172 254.84 464.685 255.874C454.531 267.456 443.858 279.244 432.667 291.24C421.684 303.235 410.908 315.024 400.338 326.605C389.769 337.98 379.719 349.045 370.186 359.799C360.86 370.553 352.571 380.584 345.318 389.891C338.272 399.197 332.676 407.677 328.531 415.329C324.386 422.774 322.314 428.979 322.314 433.942C322.314 442.422 323.765 448.006 326.666 450.695C329.567 453.176 334.956 454.417 342.831 454.417C351.535 454.417 361.482 453.073 372.673 450.384C383.863 447.489 395.261 443.973 406.866 439.837C418.679 435.7 430.18 431.15 441.371 426.187C452.769 421.223 463.027 416.57 472.146 412.227L475.254 419.672C443.754 434.977 415.259 447.075 389.769 455.968C364.279 464.861 342.623 469.308 324.801 469.308C319.827 469.308 314.647 468.894 309.258 468.067C303.87 467.24 298.897 465.482 294.337 462.793C289.778 460.105 286.048 456.279 283.147 451.315C280.245 446.351 278.795 439.733 278.795 431.461C278.795 425.256 281.489 417.397 286.877 407.884C292.265 398.37 299.726 387.409 309.258 375C318.791 362.591 329.982 348.941 342.831 334.051C355.679 319.16 369.564 303.235 384.485 286.276C371.015 291.033 357.751 295.583 344.696 299.926C331.64 304.269 319.206 308.612 307.393 312.955C301.176 315.23 294.959 317.402 288.742 319.47C282.525 321.538 276.101 323.71 269.469 325.985C262.838 333.223 256.413 340.255 250.196 347.08C244.186 353.905 238.176 360.316 232.167 366.314C219.318 379.757 205.744 392.683 191.445 405.092C177.146 417.501 162.224 428.462 146.682 437.975C131.139 447.282 115.078 454.727 98.4995 460.311C82.1279 465.895 65.3418 468.687 48.1412 468.687C42.7531 468.687 37.3648 468.17 31.9767 467.136C26.7958 465.895 22.1332 464.034 17.9885 461.552C13.8438 458.864 10.4242 455.451 7.73011 451.315C5.24328 446.972 4 441.595 4 435.183C4 426.704 7.41932 418.741 14.2581 411.296C21.3041 403.851 30.4225 396.922 41.6132 390.511C53.0112 383.893 65.9634 377.792 80.4699 372.208C94.9764 366.417 109.794 361.143 124.922 356.387C140.258 351.423 155.282 346.977 169.996 343.047C184.71 338.911 197.973 335.085 209.785 331.569L325.423 201.275C343.867 180.387 363.036 159.395 382.931 138.3C402.825 117.204 425.103 97.2468 449.764 78.4266C447.277 80.0811 443.962 81.9424 439.817 84.0106C435.88 86.0787 431.527 88.0435 426.761 89.9048C421.995 91.5593 417.021 93.0071 411.84 94.2479C406.866 95.282 402.1 95.7991 397.541 95.7991C390.909 95.7991 385.418 94.2479 381.066 91.1457C376.714 88.0435 374.538 82.5629 374.538 74.7039V48.0247C374.538 46.1633 374.02 44.819 372.983 43.9918C371.947 42.9577 370.6 42.4407 368.942 42.4407C366.663 42.4407 363.865 43.3713 360.549 45.2327C357.441 47.094 353.192 50.7133 347.804 56.0905L341.587 50.5065C348.633 42.4407 355.265 36.96 361.482 34.0646C367.699 30.9624 375.159 29.4113 383.863 29.4113C393.603 29.4113 400.546 31.0658 404.69 34.3749C409.042 37.4771 411.218 42.027 411.218 48.0247C411.218 51.9542 411.633 55.1598 412.462 57.6416C413.291 59.9166 414.327 61.6745 415.57 62.9154C417.021 64.1563 418.472 64.9836 419.922 65.3972C421.58 65.8108 423.238 66.0176 424.896 66.0176C431.735 66.0176 439.402 64.9836 447.899 62.9154C456.396 60.8472 465.307 58.1586 474.633 54.8496C483.958 51.3337 493.388 47.4042 502.92 43.0611C512.66 38.718 521.986 34.2714 530.897 29.7215C539.808 25.1716 548.201 20.8284 556.076 16.6921C563.951 12.349 570.79 8.52292 576.593 5.21387L582.81 10.7979C565.609 21.7591 548.616 34.168 531.83 48.0247C515.251 61.8813 499.294 76.1516 483.958 90.8355C468.623 105.313 454.22 119.686 440.75 133.957C427.279 148.02 415.363 160.946 405.001 172.734L287.498 306.13C305.321 300.546 324.076 294.549 343.763 288.138C363.658 281.519 382.413 275.108 400.028 268.904C404.172 264.561 408.214 260.114 412.151 255.564C416.296 250.807 420.544 245.947 424.896 240.984C429.662 235.606 434.014 230.643 437.952 226.093C442.096 221.336 446.241 216.786 450.386 212.443L474.633 184.523ZM503.231 209.341C499.708 213.477 496.392 217.407 493.284 221.129C490.383 224.852 487.481 228.575 484.58 232.297C483.336 233.538 482.3 234.986 481.471 236.64C491.004 232.504 501.573 227.747 513.178 222.37C524.991 216.993 537.218 211.202 549.859 204.998C562.708 198.793 575.66 192.279 588.716 185.454C601.772 178.629 614.309 171.597 626.329 164.358C638.349 157.12 649.539 149.778 659.901 142.333C670.263 134.887 679.174 127.442 686.635 119.996C694.51 111.931 701.349 104.485 707.151 97.6604C713.161 90.6287 718.031 83.9072 721.761 77.4959C725.699 70.8778 728.6 64.2597 730.465 57.6416C732.33 51.0235 733.263 44.0952 733.263 36.8566C733.263 32.7203 732.434 29.3079 730.776 26.6193C729.118 23.9307 727.46 22.5864 725.802 22.5864C717.099 22.5864 705.597 26.1022 691.298 33.134C676.999 39.9589 660.316 50.9201 641.25 66.0176C622.392 80.9083 601.357 100.246 578.147 124.029C554.936 147.606 529.964 176.043 503.231 209.341ZM19.5426 437.045C19.5426 439.94 20.268 442.422 21.7186 444.49C23.3765 446.558 25.4488 448.213 27.9357 449.454C30.6297 450.694 33.5311 451.625 36.6397 452.246C39.9554 452.866 43.3747 453.176 46.8978 453.176C60.5753 453.176 73.5275 450.488 85.7544 445.11C97.9814 439.526 109.794 432.185 121.192 423.085C132.797 413.985 144.091 403.541 155.075 391.752C166.266 379.964 177.456 367.761 188.647 355.146C189.269 354.112 189.891 353.284 190.512 352.664C191.134 352.043 191.963 351.216 192.999 350.182C178.078 354.939 163.468 359.489 149.169 363.832C134.869 368.175 121.296 372.518 108.447 376.861C95.5983 381.204 83.6823 385.548 72.6988 389.891C61.9225 394.234 52.5967 398.887 44.7218 403.851C36.8468 408.608 30.6298 413.778 26.0706 419.362C21.7187 424.739 19.5426 430.633 19.5426 437.045Z" fill="white"/>
<path d="M694.876 106.436H692.33V110.436H694.876V106.436ZM474.633 184.523L471.627 181.883L471.62 181.892L471.613 181.9L474.633 184.523ZM569.443 93.9377L566.952 90.8079L566.942 90.8157L566.933 90.8235L569.443 93.9377ZM617.314 58.8825L619.53 62.2128L619.545 62.2026L619.561 62.1923L617.314 58.8825ZM660.834 32.2033L662.728 35.7268L662.737 35.7217L662.747 35.7165L660.834 32.2033ZM697.515 15.141L698.885 18.899L698.917 18.8874L698.948 18.8754L697.515 15.141ZM744.454 25.6886L740.623 26.8401L740.631 26.8678L740.64 26.8954L744.454 25.6886ZM702.488 122.478L699.754 119.559L699.743 119.569L699.732 119.58L702.488 122.478ZM655.86 158.774L658.03 162.135L658.04 162.128L655.86 158.774ZM599.596 191.658L601.456 195.199L601.463 195.196L601.469 195.192L599.596 191.658ZM539.29 221.75L540.973 225.379L540.988 225.372L541.003 225.365L539.29 221.75ZM480.228 249.049L481.801 252.727L481.851 252.706L481.901 252.683L480.228 249.049ZM472.146 252.772L473.682 256.465L473.809 256.413L473.932 256.351L472.146 252.772ZM464.685 255.874L463.149 252.181L462.291 252.538L461.678 253.237L464.685 255.874ZM432.667 291.24L429.742 288.511L429.73 288.525L429.717 288.538L432.667 291.24ZM400.338 326.605L403.269 329.328L403.281 329.315L403.293 329.302L400.338 326.605ZM370.186 359.799L367.192 357.146L367.178 357.162L367.164 357.179L370.186 359.799ZM345.318 389.891L342.163 387.432L342.145 387.454L342.128 387.476L345.318 389.891ZM328.531 415.329L332.026 417.275L332.037 417.254L332.048 417.234L328.531 415.329ZM326.666 450.695L323.947 453.628L324.006 453.682L324.066 453.734L326.666 450.695ZM372.673 450.384L373.607 454.274L373.641 454.265L373.675 454.257L372.673 450.384ZM406.866 439.837L405.544 436.061L405.534 436.065L405.524 436.069L406.866 439.837ZM441.371 426.187L439.774 422.52L439.762 422.525L439.749 422.53L441.371 426.187ZM472.146 412.227L475.837 410.686L474.218 406.809L470.426 408.616L472.146 412.227ZM475.254 419.672L477.002 423.27L480.402 421.618L478.945 418.131L475.254 419.672ZM384.485 286.276L387.488 288.918L397.629 277.393L383.153 282.504L384.485 286.276ZM307.393 312.955L308.768 316.712L308.774 316.71L307.393 312.955ZM269.469 325.985L268.171 322.201L267.208 322.532L266.52 323.283L269.469 325.985ZM250.196 347.08L247.239 344.386L247.216 344.411L247.194 344.436L250.196 347.08ZM232.167 366.314L229.341 363.482L229.308 363.516L229.275 363.55L232.167 366.314ZM146.682 437.975L148.737 441.407L148.753 441.397L148.77 441.387L146.682 437.975ZM98.4995 460.311L97.2227 456.521L97.2155 456.523L97.2082 456.526L98.4995 460.311ZM31.9767 467.136L31.045 471.026L31.1335 471.048L31.2228 471.065L31.9767 467.136ZM17.9885 461.552L15.8117 464.908L15.8719 464.947L15.9336 464.984L17.9885 461.552ZM7.73011 451.315L4.25888 453.303L4.31582 453.402L4.37836 453.498L7.73011 451.315ZM14.2581 411.296L11.3528 408.547L11.3324 408.568L11.3122 408.59L14.2581 411.296ZM41.6132 390.511L43.6017 393.982L43.6117 393.976L43.6218 393.97L41.6132 390.511ZM80.4699 372.208L81.9069 375.941L81.9299 375.932L81.9529 375.923L80.4699 372.208ZM124.922 356.387L126.122 360.202L126.138 360.197L126.154 360.192L124.922 356.387ZM169.996 343.047L171.028 346.912L171.053 346.905L171.078 346.898L169.996 343.047ZM209.785 331.569L210.926 335.403L212.02 335.077L212.777 334.224L209.785 331.569ZM325.423 201.275L328.414 203.93L328.421 203.923L325.423 201.275ZM449.764 78.4266L452.191 81.6064L447.549 75.0963L449.764 78.4266ZM439.817 84.0106L438.031 80.4314L437.994 80.45L437.957 80.4694L439.817 84.0106ZM426.761 89.9048L428.073 93.6836L428.145 93.6586L428.216 93.6308L426.761 89.9048ZM411.84 94.2479L412.654 98.1642L412.713 98.1519L412.772 98.1379L411.84 94.2479ZM372.983 43.9918L370.158 46.8231L370.315 46.9795L370.488 47.1177L372.983 43.9918ZM360.549 45.2327L358.591 41.7447L358.542 41.7721L358.494 41.8009L360.549 45.2327ZM347.804 56.0905L345.131 59.0664L347.949 61.5971L350.63 58.9218L347.804 56.0905ZM341.587 50.5065L338.575 47.8749L335.979 50.8461L338.914 53.4823L341.587 50.5065ZM361.482 34.0646L363.171 37.6907L363.219 37.6679L363.268 37.6438L361.482 34.0646ZM404.69 34.3749L402.195 37.5008L402.28 37.5688L402.369 37.632L404.69 34.3749ZM412.462 57.6416L408.668 58.9088L408.685 58.9602L408.704 59.011L412.462 57.6416ZM415.57 62.9154L412.745 65.7467L412.854 65.8552L412.97 65.955L415.57 62.9154ZM419.922 65.3972L418.826 69.2439L418.89 69.2621L418.954 69.2782L419.922 65.3972ZM474.633 54.8496L475.97 58.6193L476.007 58.6062L476.044 58.5924L474.633 54.8496ZM502.92 43.0611L501.291 39.4078L501.277 39.4144L501.262 39.4211L502.92 43.0611ZM556.076 16.6921L557.936 20.2334L557.972 20.2144L558.008 20.1948L556.076 16.6921ZM576.593 5.21387L579.266 2.238L577.118 0.309405L574.611 1.73916L576.593 5.21387ZM582.81 10.7979L584.959 14.1712L589.401 11.341L585.483 7.82202L582.81 10.7979ZM531.83 48.0247L529.283 44.9399L529.274 44.9477L529.264 44.9555L531.83 48.0247ZM483.958 90.8355L486.704 93.7441L486.714 93.7344L486.725 93.7246L483.958 90.8355ZM440.75 133.957L443.638 136.723L443.648 136.713L443.658 136.702L440.75 133.957ZM405.001 172.734L408.003 175.378L408.006 175.375L405.001 172.734ZM287.498 306.13L284.497 303.486L275.036 314.227L288.694 309.947L287.498 306.13ZM343.763 288.138L345.002 291.941L345.014 291.937L345.026 291.933L343.763 288.138ZM400.028 268.904L401.356 272.676L402.26 272.358L402.921 271.665L400.028 268.904ZM412.151 255.564L409.135 252.936L409.126 252.947L412.151 255.564ZM424.896 240.984L421.903 238.33L421.895 238.338L421.888 238.347L424.896 240.984ZM437.952 226.093L434.936 223.465L434.927 223.475L437.952 226.093ZM450.386 212.443L453.28 215.205L453.345 215.137L453.406 215.066L450.386 212.443ZM503.231 209.341L506.276 211.934L506.314 211.89L506.35 211.845L503.231 209.341ZM493.284 221.129L490.214 218.565L490.17 218.617L490.129 218.67L493.284 221.129ZM484.58 232.297L487.405 235.129L487.582 234.953L487.735 234.756L484.58 232.297ZM481.471 236.64L477.895 234.849L472.963 244.692L483.064 240.31L481.471 236.64ZM513.178 222.37L511.521 218.73L511.509 218.735L511.497 218.741L513.178 222.37ZM549.859 204.998L548.12 201.396L548.108 201.401L548.097 201.407L549.859 204.998ZM686.635 119.996L689.46 122.828L689.479 122.809L689.497 122.791L686.635 119.996ZM707.151 97.6604L704.111 95.0616L704.104 95.0694L707.151 97.6604ZM721.761 77.4959L718.324 75.4507L718.314 75.4674L718.304 75.4843L721.761 77.4959ZM691.298 33.134L693.021 36.7439L693.042 36.7338L693.063 36.7234L691.298 33.134ZM641.25 66.0176L643.729 69.157L643.733 69.1535L641.25 66.0176ZM578.147 124.029L580.997 126.836L581.003 126.829L581.01 126.823L578.147 124.029ZM21.7186 444.49L18.4439 446.787L18.5175 446.892L18.5976 446.992L21.7186 444.49ZM27.9357 449.454L26.1497 453.033L26.2056 453.061L26.2622 453.087L27.9357 449.454ZM36.6397 452.246L35.8567 456.168L35.8803 456.173L35.9039 456.177L36.6397 452.246ZM85.7544 445.11L87.3647 448.772L87.3905 448.761L87.4162 448.749L85.7544 445.11ZM121.192 423.085L118.724 419.937L118.71 419.948L118.696 419.959L121.192 423.085ZM155.075 391.752L152.174 388.998L152.161 389.012L152.148 389.025L155.075 391.752ZM188.647 355.146L191.639 357.8L191.885 357.524L192.075 357.207L188.647 355.146ZM192.999 350.182L195.825 353.013L191.784 346.371L192.999 350.182ZM72.6988 389.891L71.2279 386.171L71.2157 386.176L71.2035 386.181L72.6988 389.891ZM44.7218 403.851L46.7899 407.275L46.8224 407.255L46.8546 407.235L44.7218 403.851ZM26.0706 419.362L22.9722 416.832L22.9667 416.839L22.9613 416.846L26.0706 419.362ZM477.638 187.163C492.271 170.503 507.625 154.563 523.7 139.343L518.2 133.534C501.946 148.923 486.422 165.039 471.627 181.883L477.638 187.163ZM523.7 139.343C539.793 124.106 555.877 110.01 571.953 97.052L566.933 90.8235C550.68 103.924 534.436 118.162 518.2 133.534L523.7 139.343ZM571.934 97.0675C588.227 84.1006 604.092 72.4837 619.53 62.2128L615.099 55.5522C599.451 65.9628 583.402 77.7161 566.952 90.8079L571.934 97.0675ZM619.561 62.1923C635.014 51.7053 649.402 42.8875 662.728 35.7268L658.941 28.6798C645.326 35.9961 630.7 44.9645 615.068 55.5727L619.561 62.1923ZM662.747 35.7165C676.307 28.335 688.348 22.7413 698.885 18.899L696.145 11.3831C685.129 15.3997 672.716 21.1809 658.922 28.6901L662.747 35.7165ZM698.948 18.8754C709.538 14.8108 717.813 12.9365 723.937 12.9365V4.93655C716.385 4.93655 707.045 7.1986 696.081 11.4067L698.948 18.8754ZM723.937 12.9365C726.351 12.9365 728.663 13.3645 730.897 14.222L733.764 6.75331C730.61 5.54266 727.326 4.93655 723.937 4.93655V12.9365ZM730.897 14.222C732.881 14.9835 734.721 16.3025 736.41 18.3253L742.55 13.1977C740.095 10.2568 737.168 8.06003 733.764 6.75331L730.897 14.222ZM736.41 18.3253C738.041 20.2784 739.486 23.0567 740.623 26.8401L748.284 24.5371C746.935 20.0479 745.064 16.2081 742.55 13.1977L736.41 18.3253ZM740.64 26.8954C741.718 30.3009 742.319 34.8223 742.319 40.5793H750.319C750.319 34.3411 749.676 28.9353 748.267 24.4819L740.64 26.8954ZM742.319 40.5793C742.319 54.5103 738.592 67.993 731.042 81.081L737.971 85.0788C746.17 70.8671 750.319 56.0162 750.319 40.5793H742.319ZM731.042 81.081C723.394 94.3372 712.985 107.167 699.754 119.559L705.223 125.398C718.933 112.558 729.869 99.1223 737.971 85.0788L731.042 81.081ZM699.732 119.58C686.672 132.002 671.329 143.952 653.681 155.42L658.04 162.128C676.036 150.434 691.778 138.186 705.245 125.377L699.732 119.58ZM653.69 155.414C636.178 166.722 617.523 177.626 597.722 188.124L601.469 195.192C621.458 184.595 640.312 173.576 658.03 162.135L653.69 155.414ZM597.736 188.117C578.098 198.432 558.045 208.438 537.577 218.135L541.003 225.365C561.568 215.621 581.719 205.566 601.456 195.199L597.736 188.117ZM537.607 218.121C517.094 227.633 497.41 236.732 478.554 245.416L481.901 252.683C500.763 243.995 520.454 234.893 540.973 225.379L537.607 218.121ZM478.655 245.372C475.691 246.639 472.925 247.913 470.36 249.193L473.932 256.351C476.34 255.15 478.962 253.941 481.801 252.727L478.655 245.372ZM470.61 249.079C469.367 249.596 468.123 250.113 466.88 250.63C465.636 251.147 464.393 251.664 463.149 252.181L466.221 259.568C467.464 259.051 468.708 258.534 469.951 258.017C471.195 257.5 472.438 256.983 473.682 256.465L470.61 249.079ZM461.678 253.237C451.552 264.786 440.907 276.544 429.742 288.511L435.592 293.968C446.809 281.945 457.509 270.126 467.693 258.511L461.678 253.237ZM429.717 288.538C418.732 300.535 407.954 312.326 397.384 323.909L403.293 329.302C413.861 317.722 424.635 305.935 435.617 293.941L429.717 288.538ZM397.408 323.883C386.82 335.278 376.748 346.366 367.192 357.146L373.179 362.452C382.69 351.723 392.719 340.682 403.269 329.328L397.408 323.883ZM367.164 357.179C357.801 367.975 349.466 378.06 342.163 387.432L348.473 392.35C355.675 383.108 363.919 373.132 373.208 362.42L367.164 357.179ZM342.128 387.476C334.999 396.894 329.281 405.546 325.014 413.424L332.048 417.234C336.071 409.808 341.544 401.501 348.507 392.305L342.128 387.476ZM325.036 413.383C320.768 421.052 318.314 427.971 318.314 433.942H326.314C326.314 429.987 328.005 424.497 332.026 417.275L325.036 413.383ZM318.314 433.942C318.314 438.378 318.69 442.261 319.531 445.496C320.365 448.707 321.735 451.578 323.947 453.628L329.385 447.761C328.696 447.122 327.89 445.857 327.274 443.484C326.663 441.135 326.314 437.986 326.314 433.942H318.314ZM324.066 453.734C328.146 457.224 334.85 458.417 342.831 458.417V450.417C335.062 450.417 330.989 449.128 329.266 447.655L324.066 453.734ZM342.831 458.417C351.931 458.417 362.202 457.014 373.607 454.274L371.738 446.495C360.762 449.132 351.138 450.417 342.831 450.417V458.417ZM373.675 454.257C384.988 451.33 396.499 447.778 408.209 443.605L405.524 436.069C394.023 440.168 382.739 443.648 371.671 446.512L373.675 454.257ZM408.188 443.612C420.1 439.441 431.702 434.851 442.993 429.843L439.749 422.53C428.659 427.449 417.258 431.96 405.544 436.061L408.188 443.612ZM442.968 429.854C454.399 424.877 464.699 420.204 473.866 415.838L470.426 408.616C461.356 412.935 451.14 417.57 439.774 422.52L442.968 429.854ZM468.455 413.768L471.563 421.213L478.945 418.131L475.837 410.686L468.455 413.768ZM473.506 416.074C442.108 431.329 413.759 443.362 388.452 452.192L391.087 459.745C416.76 450.788 445.401 438.624 477.002 423.27L473.506 416.074ZM388.452 452.192C363.19 461.005 342.006 465.308 324.801 465.308V473.308C343.24 473.308 365.369 468.718 391.087 459.745L388.452 452.192ZM324.801 465.308C320.049 465.308 315.072 464.913 309.865 464.113L308.651 472.021C314.222 472.876 319.606 473.308 324.801 473.308V465.308ZM309.865 464.113C304.965 463.361 300.477 461.77 296.369 459.348L292.306 466.239C297.316 469.194 302.776 471.119 308.651 472.021L309.865 464.113ZM296.369 459.348C292.448 457.035 289.188 453.723 286.6 449.296L279.693 453.333C282.909 458.834 287.109 463.174 292.306 466.239L296.369 459.348ZM286.6 449.296C284.18 445.157 282.795 439.317 282.795 431.461H274.795C274.795 440.15 276.311 447.546 279.693 453.333L286.6 449.296ZM282.795 431.461C282.795 426.292 285.086 419.163 290.357 409.855L283.396 405.912C277.892 415.631 274.795 424.22 274.795 431.461H282.795ZM290.357 409.855C295.624 400.556 302.967 389.755 312.43 377.437L306.086 372.563C296.484 385.063 288.906 396.184 283.396 405.912L290.357 409.855ZM312.43 377.437C321.907 365.101 333.048 351.511 345.859 336.664L339.802 331.437C326.916 346.372 315.675 360.081 306.086 372.563L312.43 377.437ZM345.859 336.664C358.698 321.784 372.574 305.869 387.488 288.918L381.482 283.634C366.554 300.601 352.66 316.536 339.802 331.437L345.859 336.664ZM383.153 282.504C369.705 287.253 356.465 291.795 343.433 296.13L345.958 303.721C359.038 299.37 372.324 294.812 385.817 290.048L383.153 282.504ZM343.433 296.13C330.341 300.486 317.868 304.842 306.013 309.201L308.774 316.71C320.544 312.382 332.938 308.053 345.958 303.721L343.433 296.13ZM306.019 309.199C299.839 311.46 293.659 313.619 287.479 315.675L290.005 323.266C296.259 321.185 302.514 319 308.768 316.712L306.019 309.199ZM287.479 315.675C281.25 317.747 274.814 319.923 268.171 322.201L270.767 329.768C277.388 327.497 283.8 325.33 290.005 323.266L287.479 315.675ZM266.52 323.283C259.886 330.524 253.459 337.558 247.239 344.386L253.153 349.774C259.368 342.952 265.789 335.923 272.419 328.687L266.52 323.283ZM247.194 344.436C241.237 351.201 235.286 357.55 229.341 363.482L234.992 369.145C241.067 363.083 247.136 356.608 253.198 349.723L247.194 344.436ZM229.275 363.55C216.514 376.901 203.03 389.742 188.823 402.071L194.067 408.113C208.458 395.624 222.122 382.612 235.058 369.078L229.275 363.55ZM188.823 402.071C174.684 414.34 159.941 425.17 144.594 434.564L148.77 441.387C164.508 431.754 179.607 420.661 194.067 408.113L188.823 402.071ZM144.627 434.544C129.321 443.708 113.521 451.031 97.2227 456.521L99.7763 464.102C116.636 458.424 132.957 450.856 148.737 441.407L144.627 434.544ZM97.2082 456.526C81.2499 461.969 64.9 464.687 48.1412 464.687V472.687C65.7836 472.687 83.0058 469.822 99.7908 464.097L97.2082 456.526ZM48.1412 464.687C43.0107 464.687 37.8748 464.195 32.7306 463.208L31.2228 471.065C36.8549 472.146 42.4955 472.687 48.1412 472.687V464.687ZM32.9084 463.246C28.0828 462.091 23.8054 460.373 20.0434 458.12L15.9336 464.984C20.4611 467.695 25.5088 469.7 31.045 471.026L32.9084 463.246ZM20.1653 458.197C16.4895 455.812 13.4703 452.799 11.0819 449.132L4.37836 453.498C7.37805 458.104 11.1981 461.915 15.8117 464.908L20.1653 458.197ZM11.2013 449.327C9.14533 445.737 8 441.089 8 435.183H0C0 442.1 1.34123 448.207 4.25888 453.303L11.2013 449.327ZM8 435.183C8 427.893 10.9052 420.86 17.204 414.002L11.3122 408.59C3.93347 416.623 0 425.515 0 435.183H8ZM17.1634 414.046C23.8818 406.946 32.6668 400.247 43.6017 393.982L39.6248 387.04C28.1782 393.598 18.7264 400.755 11.3528 408.547L17.1634 414.046ZM43.6218 393.97C54.8077 387.475 67.5638 381.462 81.9069 375.941L79.033 368.475C64.363 374.122 51.2147 380.311 39.6047 387.052L43.6218 393.97ZM81.9529 375.923C96.3649 370.17 111.088 364.93 126.122 360.202L123.722 352.571C108.5 357.357 93.588 362.664 78.987 368.493L81.9529 375.923ZM126.154 360.192C141.427 355.249 156.385 350.822 171.028 346.912L168.964 339.182C154.179 343.131 139.088 347.597 123.69 352.581L126.154 360.192ZM171.078 346.898C185.807 342.757 199.09 338.925 210.926 335.403L208.644 327.735C196.855 331.244 183.612 335.064 168.913 339.196L171.078 346.898ZM212.777 334.224L328.414 203.93L322.431 198.62L206.793 328.914L212.777 334.224ZM328.421 203.923C346.835 183.068 365.975 162.109 385.841 141.044L380.021 135.555C360.097 156.681 340.898 177.705 322.424 198.627L328.421 203.923ZM385.841 141.044C405.577 120.117 427.691 100.304 452.191 81.6064L447.337 75.2467C422.516 94.1897 400.074 114.292 380.021 135.555L385.841 141.044ZM447.549 75.0963C445.253 76.6236 442.099 78.4018 438.031 80.4314L441.603 87.5898C445.825 85.4831 449.302 83.5386 451.98 81.7568L447.549 75.0963ZM437.957 80.4694C434.169 82.4591 429.954 84.3637 425.306 86.1789L428.216 93.6308C433.101 91.7233 437.59 89.6984 441.677 87.5518L437.957 80.4694ZM425.449 86.126C420.814 87.7349 415.968 89.1461 410.908 90.358L412.772 98.1379C418.074 96.868 423.175 95.3838 428.073 93.6836L425.449 86.126ZM411.026 90.3317C406.29 91.3163 401.797 91.7991 397.541 91.7991V99.7991C402.403 99.7991 407.443 99.2477 412.654 98.1642L411.026 90.3317ZM397.541 91.7991C391.539 91.7991 386.913 90.4019 383.388 87.8885L378.744 94.4029C383.922 98.0939 390.28 99.7991 397.541 99.7991V91.7991ZM383.388 87.8885C380.52 85.8447 378.538 81.9112 378.538 74.7039H370.538C370.538 83.2145 372.907 90.2423 378.744 94.4029L383.388 87.8885ZM378.538 74.7039V48.0247H370.538V74.7039H378.538ZM378.538 48.0247C378.538 45.4635 377.807 42.7246 375.479 40.8658L370.488 47.1177C370.404 47.0506 370.39 46.99 370.417 47.059C370.456 47.1599 370.538 47.4492 370.538 48.0247H378.538ZM375.809 41.1605C373.921 39.2765 371.507 38.4407 368.942 38.4407V46.4407C369.694 46.4407 369.973 46.6389 370.158 46.8231L375.809 41.1605ZM368.942 38.4407C365.662 38.4407 362.152 39.746 358.591 41.7447L362.507 48.7207C365.578 46.9967 367.664 46.4407 368.942 46.4407V38.4407ZM358.494 41.8009C354.94 43.9292 350.403 47.8461 344.979 53.2592L350.63 58.9218C355.982 53.5804 359.942 50.2588 362.604 48.6645L358.494 41.8009ZM350.477 53.1146L344.26 47.5306L338.914 53.4823L345.131 59.0664L350.477 53.1146ZM344.6 53.138C351.463 45.2814 357.663 40.2556 363.171 37.6907L359.793 30.4386C352.866 33.6645 345.803 39.5999 338.575 47.8749L344.6 53.138ZM363.268 37.6438C368.808 34.8794 375.626 33.4113 383.863 33.4113V25.4113C374.692 25.4113 366.59 27.0454 359.696 30.4855L363.268 37.6438ZM383.863 33.4113C393.362 33.4113 399.146 35.0666 402.195 37.5008L407.186 31.2489C401.946 27.0651 393.844 25.4113 383.863 25.4113V33.4113ZM402.369 37.632C405.527 39.8833 407.218 43.1372 407.218 48.0247H415.218C415.218 40.9169 412.558 35.0708 407.012 31.1177L402.369 37.632ZM407.218 48.0247C407.218 52.1912 407.652 55.8682 408.668 58.9088L416.256 56.3744C415.614 54.4514 415.218 51.7171 415.218 48.0247H407.218ZM408.704 59.011C409.662 61.64 410.962 63.9672 412.745 65.7467L418.396 60.0841C417.692 59.3818 416.92 58.1931 416.22 56.2722L408.704 59.011ZM412.97 65.955C414.746 67.4739 416.695 68.6364 418.826 69.2439L421.019 61.5505C420.248 61.3307 419.296 60.8387 418.171 59.8758L412.97 65.955ZM418.954 69.2782C420.919 69.7684 422.902 70.0176 424.896 70.0176V62.0176C423.574 62.0176 422.242 61.8532 420.891 61.5162L418.954 69.2782ZM424.896 70.0176C432.128 70.0176 440.12 68.9257 448.845 66.8019L446.953 59.0289C438.685 61.0414 431.342 62.0176 424.896 62.0176V70.0176ZM448.845 66.8019C457.49 64.6977 466.533 61.9681 475.97 58.6193L473.295 51.0799C464.082 54.3492 455.301 56.9968 446.953 59.0289L448.845 66.8019ZM476.044 58.5924C485.457 55.0435 494.969 51.0794 504.579 46.7011L501.262 39.4211C491.806 43.7291 482.46 47.6239 473.222 51.1068L476.044 58.5924ZM504.549 46.7144C514.349 42.3445 523.738 37.8679 532.716 33.284L529.078 26.159C520.233 30.675 510.971 35.0915 501.291 39.4078L504.549 46.7144ZM532.716 33.284C541.639 28.7279 550.046 24.3776 557.936 20.2334L554.216 13.1509C546.356 17.2792 537.977 21.6152 529.078 26.159L532.716 33.284ZM558.008 20.1948C565.894 15.8454 572.751 12.0096 578.574 8.68857L574.611 1.73916C568.83 5.0362 562.008 8.85264 554.144 13.1895L558.008 20.1948ZM573.92 8.18974L580.137 13.7738L585.483 7.82202L579.266 2.238L573.92 8.18974ZM580.66 7.42461C563.313 18.4794 546.187 30.986 529.283 44.9399L534.376 51.1094C551.044 37.3501 567.906 25.0388 584.959 14.1712L580.66 7.42461ZM529.264 44.9555C512.618 58.8689 496.593 73.1991 481.192 87.9464L486.725 93.7246C501.994 79.104 517.884 64.8938 534.395 51.0938L529.264 44.9555ZM481.212 87.9268C465.825 102.453 451.368 116.881 437.841 131.211L443.658 136.702C457.072 122.492 471.42 108.172 486.704 93.7441L481.212 87.9268ZM437.861 131.19C424.36 145.285 412.404 158.254 401.997 170.094L408.006 175.375C418.322 163.638 430.198 150.755 443.638 136.723L437.861 131.19ZM402 170.09L284.497 303.486L290.5 308.774L408.003 175.378L402 170.09ZM288.694 309.947C306.532 304.359 325.302 298.356 345.002 291.941L342.525 284.334C322.85 290.741 304.109 296.734 286.303 302.313L288.694 309.947ZM345.026 291.933C364.94 285.308 383.717 278.89 401.356 272.676L398.699 265.131C381.108 271.327 362.376 277.73 342.501 284.342L345.026 291.933ZM402.921 271.665C407.111 267.275 411.196 262.781 415.176 258.182L409.126 252.947C405.231 257.448 401.234 261.846 397.134 266.142L402.921 271.665ZM415.167 258.192C419.309 253.438 423.554 248.581 427.904 243.621L421.888 238.347C417.534 243.313 413.283 248.176 409.135 252.936L415.167 258.192ZM427.889 243.637C432.664 238.25 437.027 233.274 440.976 228.71L434.927 223.475C431.002 228.011 426.66 232.963 421.903 238.33L427.889 243.637ZM440.967 228.721C445.074 224.007 449.179 219.502 453.28 215.205L447.492 209.681C443.304 214.07 439.118 218.665 434.936 223.465L440.967 228.721ZM453.406 215.066L477.653 187.146L471.613 181.9L447.366 209.82L453.406 215.066ZM500.186 206.747C496.655 210.892 493.331 214.832 490.214 218.565L496.354 223.693C499.454 219.981 502.761 216.062 506.276 211.934L500.186 206.747ZM490.129 218.67C488.678 220.532 487.228 222.393 485.777 224.254C484.326 226.116 482.876 227.977 481.425 229.838L487.735 234.756C489.185 232.895 490.636 231.034 492.087 229.172C493.538 227.311 494.988 225.449 496.439 223.588L490.129 218.67ZM481.754 229.466C480.19 231.027 478.906 232.83 477.895 234.849L485.048 238.432C485.694 237.142 486.482 236.05 487.405 235.129L481.754 229.466ZM483.064 240.31C492.632 236.158 503.232 231.387 514.86 225.999L511.497 218.741C499.915 224.107 489.376 228.85 479.879 232.971L483.064 240.31ZM514.836 226.011C526.686 220.616 538.948 214.809 551.622 208.588L548.097 201.407C535.487 207.596 523.296 213.37 511.521 218.73L514.836 226.011ZM551.599 208.6C564.487 202.376 577.477 195.842 590.569 188.998L586.863 181.909C573.843 188.715 560.929 195.21 548.12 201.396L551.599 208.6ZM590.569 188.998C603.693 182.138 616.301 175.067 628.393 167.785L624.266 160.932C612.318 168.127 599.851 175.119 586.863 181.909L590.569 188.998ZM628.393 167.785C640.496 160.496 651.778 153.095 662.235 145.581L657.567 139.084C647.301 146.461 636.202 153.744 624.266 160.932L628.393 167.785ZM662.235 145.581C672.737 138.035 681.82 130.453 689.46 122.828L683.809 117.165C676.529 124.431 667.789 131.739 657.567 139.084L662.235 145.581ZM689.497 122.791C697.42 114.675 704.324 107.161 710.199 100.251L704.104 95.0694C698.374 101.809 691.599 109.186 683.773 117.202L689.497 122.791ZM710.192 100.259C716.322 93.0874 721.342 86.1701 725.219 79.5075L718.304 75.4843C714.72 81.6442 710.001 88.17 704.111 95.0616L710.192 100.259ZM725.199 79.5411C729.294 72.6577 732.345 65.7189 734.315 58.7266L726.615 56.5566C724.855 62.8005 722.103 69.0978 718.324 75.4507L725.199 79.5411ZM734.315 58.7266C736.285 51.7373 737.263 44.4427 737.263 36.8566H729.263C729.263 43.7477 728.376 50.3097 726.615 56.5566L734.315 58.7266ZM737.263 36.8566C737.263 32.2034 736.331 28.0067 734.181 24.5198L727.371 28.7188C728.537 30.6091 729.263 33.2373 729.263 36.8566H737.263ZM734.181 24.5198C732.429 21.6787 729.733 18.5864 725.802 18.5864V26.5864C725.478 26.5864 725.446 26.4386 725.77 26.7015C726.124 26.9888 726.676 27.5916 727.371 28.7188L734.181 24.5198ZM725.802 18.5864C716.168 18.5864 703.997 22.4313 689.533 29.5445L693.063 36.7234C707.197 29.7731 718.029 26.5864 725.802 26.5864V18.5864ZM689.575 29.5241C674.902 36.5272 657.957 47.6858 638.767 62.8818L643.733 69.1535C662.675 54.1544 679.095 43.3906 693.021 36.7439L689.575 29.5241ZM638.771 62.8783C619.737 77.9075 598.573 97.3715 575.284 121.236L581.01 126.823C604.142 103.12 625.046 83.9092 643.729 69.157L638.771 62.8783ZM575.296 121.223C551.969 144.919 526.907 173.463 500.112 206.837L506.35 211.845C533.022 178.624 557.904 150.294 580.997 126.836L575.296 121.223ZM15.5426 437.045C15.5426 440.638 16.4545 443.951 18.4439 446.787L24.9934 442.193C24.0814 440.893 23.5426 439.242 23.5426 437.045H15.5426ZM18.5976 446.992C20.6349 449.533 23.1709 451.546 26.1497 453.033L29.7216 445.874C27.7268 444.879 26.1181 443.583 24.8396 441.988L18.5976 446.992ZM26.2622 453.087C29.2596 454.467 32.462 455.491 35.8567 456.168L37.4226 448.323C34.6002 447.76 31.9999 446.922 29.6091 445.82L26.2622 453.087ZM35.9039 456.177C39.4728 456.845 43.1388 457.176 46.8978 457.176V449.176C43.6107 449.176 40.438 448.887 37.3754 448.314L35.9039 456.177ZM46.8978 457.176C61.1161 457.176 74.618 454.378 87.3647 448.772L84.1442 441.449C72.4371 446.598 60.0346 449.176 46.8978 449.176V457.176ZM87.4162 448.749C99.9651 443.018 112.055 435.498 123.688 426.211L118.696 419.959C107.533 428.871 95.9977 436.035 84.0927 441.472L87.4162 448.749ZM123.66 426.232C135.443 416.993 146.889 406.405 158.001 394.479L152.148 389.025C141.293 400.676 130.151 410.976 118.724 419.937L123.66 426.232ZM157.976 394.506C169.199 382.684 180.42 370.448 191.639 357.8L185.655 352.491C174.493 365.075 163.332 377.243 152.174 388.998L157.976 394.506ZM192.075 357.207C192.586 356.357 193.015 355.817 193.338 355.495L187.687 349.833C186.766 350.752 185.952 351.866 185.219 353.085L192.075 357.207ZM193.338 355.495C193.649 355.185 194.012 354.823 194.426 354.409C194.84 353.996 195.307 353.53 195.825 353.013L190.173 347.351C189.655 347.868 189.189 348.333 188.775 348.747C188.36 349.161 187.998 349.522 187.687 349.833L193.338 355.495ZM191.784 346.371C176.88 351.123 162.287 355.667 148.006 360.005L150.331 367.659C164.649 363.311 179.276 358.755 194.214 353.993L191.784 346.371ZM148.006 360.005C133.671 364.359 120.058 368.714 107.166 373.072L109.728 380.651C122.533 376.322 136.068 371.992 150.331 367.659L148.006 360.005ZM107.166 373.072C94.2627 377.434 82.2825 381.8 71.2279 386.171L74.1696 393.61C85.082 389.295 96.934 384.975 109.728 380.651L107.166 373.072ZM71.2035 386.181C60.2574 390.592 50.7087 395.349 42.5889 400.467L46.8546 407.235C54.4847 402.425 63.5876 397.875 74.194 393.601L71.2035 386.181ZM42.6536 400.427C34.4897 405.358 27.8886 410.811 22.9722 416.832L29.169 421.892C33.371 416.745 39.2039 411.857 46.7899 407.275L42.6536 400.427ZM22.9613 416.846C18.0819 422.875 15.5426 429.643 15.5426 437.045H23.5426C23.5426 431.624 25.3554 426.604 29.1799 421.878L22.9613 416.846Z" fill="black" mask="url(#path-3-outside-1_363_170)"/>
</svg>
